<?xml version="1.0" encoding="UTF-8" standalone="no"?>
<svg width="1263px" height="428px" viewBox="0 0 1263 428" version="1.1" xmlns="http://www.w3.org/2000/svg" xmlns:xlink="http://www.w3.org/1999/xlink" xmlns:sketch="http://www.bohemiancoding.com/sketch/ns">
    <!-- Generator: Sketch 3.2.2 (9983) - http://www.bohemiancoding.com/sketch -->
    <title>Group</title>
    <desc>Created with Sketch.</desc>
    <defs></defs>
    <g id="Page-1" stroke="none" stroke-width="1" fill="none" fill-rule="evenodd" sketch:type="MSPage">
        <g id="Group" sketch:type="MSLayerGroup">
            <g id="noun_1513_cc" fill="#FFFFFF" sketch:type="MSShapeGroup">
                <path d="M64.01889,7.84503801 C64.01889,7.84503801 62.01996,7.6006878 59.03364,7.25929565 L59.29722,5.05525676 L50.26029,3.95428453 L49.98291,6.2784041 C49.4592,6.22674148 48.93342,6.17298443 48.40695,6.11992553 L47.42025,3.16468428 C47.42025,1.42281636 45.71388,0 43.63008,0 L31.15902,0 C29.07522,0 27.36954,1.42281636 27.36954,3.16468428 L26.64297,5.57537364 C20.70069,6.06407405 13.56816,6.8536743 9.1839,7.35913016 L9.12525,7.3661116 C7.12494,7.49107928 5.55381,7.6488597 4.3056,7.92323008 C4.11171,7.95674096 3.92403,8.005611 3.73704,8.05797176 C3.67287,8.07612349 3.61698,8.0970678 3.55488,8.11731396 C3.41481,8.16199514 3.2706,8.19550602 3.13743,8.25345193 C0.6969,9.1317164 0,10.8735843 0,14.7440916 L0,47.1344573 C0,47.9345297 0.0483,48.6878264 0.15663,49.3845736 C0.20976,50.0129027 0.37122,50.6063247 0.63273,51.1487821 C1.17162,52.4389512 2.12244,53.3618969 3.68322,53.7654238 C4.13241,53.9043543 4.60023,54 5.09289,54 L64.01889,54 C66.7575,54 69,51.7310338 69,48.9601024 L69,12.882143 C69,10.112608 66.7575,7.84503801 64.01889,7.84503801 L64.01889,7.84503801 Z M46.9989625,48 C37.6124255,48 30,40.3877294 30,30.9993084 C30,21.611579 37.6124255,14 46.9989625,14 C56.3889578,14 64,21.611579 64,30.9993084 C64,40.3877294 56.3889578,48 46.9989625,48 L46.9989625,48 Z" id="Shape"></path>
                <path d="M58,30.9982739 C58,37.0749772 53.074596,42 46.9989644,42 C40.925404,42 36,37.0749772 36,30.9982739 C36,24.9243323 40.925404,20 46.9989644,20 C53.074596,20 58,24.9243323 58,30.9982739 L58,30.9982739 Z" id="Shape"></path>
            </g>
            <g id="noun_10872_cc" transform="translate(212.000000, 11.000000)" fill="#FFFFFF" sketch:type="MSShapeGroup">
                <g id="Group">
                    <path d="M52.2360484,7.83114836 L46.1680993,1.76314394 C45.6793267,1.27436686 45.0158993,1 44.3251007,1 C43.634302,1 42.9708747,1.27436686 42.4821021,1.76314394 L16.100763,28.1453752 C15.8863547,28.3591337 15.7110483,28.6093876 15.582664,28.8837544 L10.2459187,40.2885528 C9.78060719,41.2817478 9.98784678,42.4606781 10.7640177,43.2362044 C11.2638692,43.7367121 11.930555,44 12.607668,44 C12.9810903,44 13.3584227,43.9198406 13.7116424,43.7543081 L25.1163368,38.4175141 C25.3907012,38.2891287 25.6409528,38.1138206 25.8547093,37.8994104 L52.2360484,11.5178309 C53.2546505,10.4992195 53.2546505,8.84910808 52.2360484,7.83114836 L52.2360484,7.83114836 Z M22.5265677,33.8814662 L18,36 L20.1185945,31.473562 L38.5913676,13 L41,15.4085633 L22.5265677,33.8814662 L22.5265677,33.8814662 Z M44.5624299,12 L42,9.43757015 L44.4375701,7 L47,9.56313131 L44.5624299,12 L44.5624299,12 Z" id="Shape"></path>
                    <path d="M47.3684211,23.5799672 C45.9151316,23.5799672 44.7368421,24.7563218 44.7368421,26.207225 L44.7368421,44.1605911 L44.7368421,46.1106732 L44.7368421,47.7454844 L5.26315789,47.7454844 L5.26315789,8.2545156 L7.45789474,8.2545156 L9.43026316,8.2545156 L29.0578947,8.2545156 C30.5111842,8.2545156 31.6894737,7.07816092 31.6894737,5.6272578 C31.6894737,4.17635468 30.5111842,3 29.0578947,3 L9.21184211,3 L7.45789474,3 L5.26315789,3 C2.35657895,3 0,5.35270936 0,8.2545156 L0,47.7454844 C0,50.6472906 2.35657895,53 5.26315789,53 L44.7368421,53 C47.6434211,53 50,50.6472906 50,47.7454844 L50,46.1106732 L50,44.1605911 L50,26.207225 C50,24.7563218 48.8217105,23.5799672 47.3684211,23.5799672 L47.3684211,23.5799672 Z" id="Shape"></path>
                </g>
            </g>
            <g id="noun_42970_cc" transform="translate(438.000000, 71.000000)" fill="#FFFFFF" sketch:type="MSShapeGroup">
                <path d="M26.7827586,0.5 L5.81724138,0.5 C2.78275862,0.5 0.3,2.97959184 0.3,6.01020408 L0.3,48.9897959 C0.3,52.0204082 2.78275862,54.5 5.81724138,54.5 L26.7827586,54.5 C29.8172414,54.5 32.3,52.0204082 32.3,48.9897959 L32.3,6.01020408 C32.3,2.97959184 29.8172414,0.5 26.7827586,0.5 L26.7827586,0.5 Z M16.1344828,51.5795918 C14.6448276,51.5795918 13.3758621,50.3673469 13.3758621,48.8244898 C13.3758621,47.3367347 14.5896552,46.0693878 16.1344828,46.0693878 C17.6793103,46.0693878 18.8931034,47.2816327 18.8931034,48.8244898 C18.8931034,50.3673469 17.6241379,51.5795918 16.1344828,51.5795918 L16.1344828,51.5795918 Z M27.8862069,44.0306122 L4.7137931,44.0306122 L4.7137931,7.66326531 L27.8862069,7.66326531 L27.8862069,44.0306122 L27.8862069,44.0306122 Z" id="Shape"></path>
            </g>
            <g id="noun_24074_cc" transform="translate(160.000000, 119.000000)">
                <g id="Слой_1"></g>
                <g id="Слой_2" transform="translate(14.000000, 17.000000)" fill="#FFFFFF" sketch:type="MSShapeGroup">
                    <g id="Group">
                        <path d="M28.124,45.716 L21.028,27.48 L18.936,27.48 L11.641,45.716 C11.302,45.793 10.957,45.901 10.609,46.041 C10.26,46.183 9.935,46.349 9.634,46.536 L9.634,47.611 L16.618,47.611 L16.618,46.536 C15.844,46.103 15.025,45.829 14.158,45.716 L15.826,41.221 L22.103,41.221 L23.742,45.716 C23.365,45.793 22.97,45.905 22.555,46.056 C22.139,46.206 21.752,46.366 21.396,46.536 L21.396,47.611 L30.244,47.611 L30.244,46.536 C29.962,46.349 29.632,46.183 29.256,46.041 C28.878,45.901 28.501,45.793 28.124,45.716 L28.124,45.716 Z M16.504,39.383 L18.455,34.04 L19.077,31.552 L19.133,31.552 L19.67,33.983 L21.508,39.383 L16.504,39.383 L16.504,39.383 Z" id="Shape"></path>
                        <path d="M69.067,0.909 L34.067,0.909 C32.523,0.909 31.267,2.165 31.267,3.709 L31.267,17.735 L1.867,17.735 C1.094,17.735 0.467,18.361 0.467,19.135 L0.467,55.509 C0.467,56.283 1.094,56.909 1.867,56.909 L14.467,56.909 L14.467,63.143 C14.467,63.678 14.772,64.166 15.252,64.401 C15.447,64.497 15.657,64.543 15.867,64.543 C16.173,64.543 16.477,64.443 16.728,64.248 L26.149,56.909 L39.668,56.909 C40.441,56.909 41.068,56.283 41.068,55.509 L41.068,40.109 L44.106,40.109 C44.557,40.109 45.376,40.395 45.73,40.676 L53.103,46.541 C53.557,46.902 54.057,47.092 54.549,47.092 C55.503,47.092 56.469,46.344 56.469,44.915 L56.469,40.108 L69.069,40.108 C70.613,40.108 71.869,38.852 71.869,37.308 L71.869,3.708 C71.867,2.166 70.611,0.909 69.067,0.909 L69.067,0.909 Z M38.267,54.109 L25.667,54.109 C25.355,54.109 25.052,54.213 24.806,54.404 L17.267,60.277 L17.267,55.508 C17.267,54.734 16.64,54.108 15.867,54.108 L3.267,54.108 L3.267,20.535 L31.267,20.535 L31.267,37.309 C31.267,38.853 32.523,40.109 34.067,40.109 L38.267,40.109 L38.267,54.109 L38.267,54.109 Z M69.067,37.309 L56.467,37.309 C54.923,37.309 53.667,38.565 53.667,40.109 L53.666,43.413 L47.472,38.486 C46.616,37.804 45.2,37.309 44.105,37.309 L34.067,37.309 L34.067,3.709 L69.067,3.709 L69.067,37.309 L69.067,37.309 Z" id="Shape"></path>
                        <path d="M40.237,33.019 L41.807,33.019 L41.807,31.769 L47.924,31.769 L47.924,23.95 L40.238,23.95 L40.238,33.019 L40.237,33.019 Z M41.806,25.465 L46.327,25.465 L46.327,30.253 L41.806,30.253 L41.806,25.465 L41.806,25.465 Z" id="Shape"></path>
                        <rect id="Rectangle-path" x="39.013" y="12.886" width="9.762" height="1.516"></rect>
                        <rect id="Rectangle-path" x="40.423" y="9.296" width="7.34" height="1.463"></rect>
                        <path d="M50.956,33.072 L52.658,33.072 L52.658,31.848 L60.424,31.848 L60.424,32.912 L62.153,32.912 L62.153,23.391 L50.956,23.391 L50.956,33.072 L50.956,33.072 Z M52.658,25.014 L60.424,25.014 L60.424,30.2 L52.658,30.2 L52.658,25.014 L52.658,25.014 Z" id="Shape"></path>
                        <path d="M64.014,19.562 L61.355,19.562 L61.355,13.95 L55.292,13.95 L55.743,10.971 L63.031,10.971 L63.031,9.375 L49.811,9.375 L49.811,10.971 L54.014,10.971 C53.854,11.902 53.695,12.94 53.535,13.95 L50.343,13.95 L50.343,15.546 L53.269,15.546 C53.004,17.009 52.737,18.392 52.498,19.563 L48.854,19.563 L48.854,21.184 L64.013,21.184 L64.013,19.562 L64.014,19.562 Z M59.626,19.562 L54.279,19.562 C54.52,18.392 54.785,16.982 55.024,15.545 L59.626,15.545 L59.626,19.562 L59.626,19.562 Z" id="Shape"></path>
                        <rect id="Rectangle-path" x="40.264" y="16.609" width="7.58" height="1.463"></rect>
                        <rect id="Rectangle-path" x="40.264" y="20.28" width="7.58" height="1.463"></rect>
                    </g>
                </g>
            </g>
            <g id="noun_107942_cc" transform="translate(621.000000, 14.000000)" fill="#FFFFFF" sketch:type="MSShapeGroup">
                <g id="Group">
                    <path d="M24.2078261,2.49294118 L39.1969565,11.1907059 C39.6108696,11.4277647 40.1404348,11.2832353 40.378587,10.8695294 L40.8107609,10.1178235 C41.0504348,9.70335294 40.908913,9.17111765 40.4965217,8.93023529 L25.5073913,0.231705882 C25.0934783,-0.00764705882 24.5631522,0.135352941 24.3257609,0.549823529 L23.893587,1.30305882 C23.653913,1.71905882 23.7961957,2.25205882 24.2078261,2.49294118 L24.2078261,2.49294118 Z" id="Shape"></path>
                    <path d="M11.2319565,25.0892353 L26.2180435,33.7847059 C26.6319565,34.0225294 27.1622826,33.8818235 27.3996739,33.4673529 L27.8318478,32.7156471 C28.0715217,32.3019412 27.93,31.7674118 27.5153261,31.5257647 L12.5277174,22.8318235 C12.1153261,22.5909412 11.5834783,22.7354706 11.3476087,23.1491765 L10.9154348,23.9031765 C10.6734783,24.3130588 10.8157609,24.8483529 11.2319565,25.0892353 L11.2319565,25.0892353 Z" id="Shape"></path>
                    <path d="M64.0819565,35.7140588 L34.0846739,20.0895882 L38.1172826,13.0703529 C38.3569565,12.6581765 38.2131522,12.1213529 37.8030435,11.882 L24.3128261,4.05447059 C23.9004348,3.81664706 23.368587,3.95964706 23.1304348,4.37411765 L13.6119565,20.9437647 C13.376087,21.3582353 13.516087,21.8927647 13.9284783,22.1321176 L27.4186957,29.9573529 C27.831087,30.1982353 28.3629348,30.0537059 28.5988043,29.64 L32.6329348,22.6207647 L61.0940217,40.9171176 C61.4934783,41.1740588 62.0184783,41.0455882 62.253587,40.6318824 L64.4182609,36.8641765 C64.6541304,36.4542941 64.5019565,35.9358235 64.0819565,35.7140588 L64.0819565,35.7140588 Z" id="Shape"></path>
                    <path d="M68.8138043,37.9133529 L67.3133696,37.0446471 C66.9040217,36.8037647 66.3698913,36.9482941 66.1317391,37.3627647 L63.5333696,41.8814118 C63.2967391,42.2951176 63.4413043,42.8296471 63.851413,43.0674706 L65.3495652,43.9361765 C65.7619565,44.1770588 66.2938043,44.0325294 66.5342391,43.6180588 L69.1295652,39.0994118 C69.3661957,38.6857059 69.2261957,38.1511765 68.8138043,37.9133529 L68.8138043,37.9133529 Z" id="Shape"></path>
                    <path d="M36.428913,43.277 L34.6248913,43.277 C34.8508696,43.0192941 35.0030435,42.6897059 35.0030435,42.3203529 L35.0030435,40.8888235 C35.0030435,40.1011765 34.3608696,39.4534706 33.5771739,39.4534706 L5.03543478,39.4534706 C4.24717391,39.4534706 3.60728261,40.1011765 3.60728261,40.8888235 L3.60728261,42.3203529 C3.60728261,42.6897059 3.75945652,43.0192941 3.98771739,43.277 L2.18369565,43.277 C1.39315217,43.277 0.755543478,43.9247059 0.755543478,44.7123529 L0.755543478,50.4491765 C0.755543478,51.2368235 1.39543478,51.8845294 2.18369565,51.8845294 L36.4311957,51.8845294 C37.2186957,51.8845294 37.8570652,51.2368235 37.8570652,50.4491765 L37.8570652,44.7077647 C37.8570652,43.9239412 37.2171739,43.277 36.428913,43.277 L36.428913,43.277 Z M34.3981522,49.9062353 L4.34304348,49.9062353 C3.5175,49.9062353 2.84108696,49.2264118 2.84108696,48.3982353 L2.84108696,46.8864118 C2.8426087,46.0582353 3.5175,45.3745882 4.34304348,45.3784118 L34.3981522,45.3784118 C35.2282609,45.3784118 35.9046739,46.0582353 35.9008696,46.8825882 L35.9046739,48.3974706 C35.9016304,49.2264118 35.2282609,49.9062353 34.3981522,49.9062353 L34.3981522,49.9062353 Z" id="Shape"></path>
                </g>
            </g>
            <g id="noun_2248" transform="translate(14.000000, 139.000000)" fill="#FFFFFF" sketch:type="MSShapeGroup">
                <g id="Group">
                    <path d="M41.569,9.967 C31.594,4.276 20.892,0.842 10.524,0.005 L10.524,58.356 C20.891,59.17 31.574,62.51 41.569,68.055 L41.569,9.967 L41.569,9.967 Z" id="Shape"></path>
                    <path d="M74.444,0.005 C64.076,0.843 53.373,4.276 43.399,9.967 L43.399,68.054 C53.392,62.509 64.078,59.169 74.444,58.355 L74.444,0.005 L74.444,0.005 Z" id="Shape"></path>
                    <path d="M41.229,71.073 C42.043,71.351 42.9,71.363 43.714,71.085 C55.371,66.042 67.579,63.772 79.512,64.295 L79.512,6.524 C78.438,6.476 77.357,6.465 76.272,6.469 L76.272,60.063 L75.42,60.119 C64.748,60.816 53.688,64.296 43.399,70.167 C42.805,70.37 42.162,70.37 41.569,70.167 C31.279,64.296 20.22,60.816 9.548,60.119 L8.694,60.063 L8.694,6.469 C7.61,6.465 6.528,6.475 5.455,6.524 L5.455,64.295 C17.387,63.771 29.569,66.03 41.229,71.073 L41.229,71.073 Z" id="Shape"></path>
                    <path d="M84.579,13.009 C83.509,12.86 82.422,12.781 81.342,12.674 L81.342,66.224 L80.374,66.168 C68.179,65.469 55.314,67.945 43.399,73.233 L42.483,73.614 L41.568,73.233 C29.651,67.945 16.787,65.468 4.592,66.168 L3.625,66.224 L3.625,12.674 C2.544,12.782 1.457,12.861 0.387,13.009 L0.387,71.716 C0.981,72.023 1.431,72.464 1.431,72.464 C14.382,70.714 27.824,70.928 40.611,75.115 C41.199,75.057 41.823,75.02 42.484,75.02 C43.145,75.02 43.769,75.057 44.356,75.115 C57.141,70.927 70.585,70.714 83.535,72.464 C83.535,72.464 84.009,72.002 84.579,71.716 L84.579,13.009 L84.579,13.009 Z" id="Shape"></path>
                </g>
            </g>
            <g id="noun_170" transform="translate(296.000000, 155.000000)" fill="#FFFFFF" sketch:type="MSShapeGroup">
                <path d="M15.8309697,22.5204 L16.3906364,21.7336 C16.5077273,21.5705 16.6415455,21.4144 16.7642121,21.252 L16.7830303,21.2961 L17.4312121,20.517 C18.2801212,19.4922 19.2475152,18.4989 20.2567273,17.6442 L21.0331515,16.9862 L20.9962121,16.968 C21.137,16.8623 21.2701212,16.7412 21.413,16.6362 L22.1796667,16.072 L10.1318485,10.2256 L10.8044242,11.6753 L15.8309697,22.5204 L15.8309697,22.5204 Z" id="Shape"></path>
                <path d="M12.4381212,38.5385 C12.4088485,38.3516 12.396303,38.1591 12.3712121,37.9701 L12.4241818,37.9876 L12.3349697,36.9733 C12.2785152,36.3167 12.2443636,35.6587 12.2443636,35 C12.2443636,34.3014 12.2757273,33.6112 12.3349697,32.9294 L12.4269697,31.9081 L12.3726061,31.9305 C12.397,31.7394 12.4088485,31.549 12.4381212,31.3621 L12.5893636,30.4108 L11.6958485,30.7328 L0,34.9503 L12.5858788,39.4863 L12.4381212,38.5385 L12.4381212,38.5385 Z" id="Shape"></path>
                <path d="M31.5030303,12.5552 L31.4842121,12.6119 L32.4836667,12.5188 C33.1443939,12.4614 33.8072121,12.4271 34.476303,12.4271 C35.1453939,12.4271 35.8089091,12.4614 36.4696364,12.5188 L37.4683939,12.6119 L37.4488788,12.5552 C37.6363636,12.5811 37.8266364,12.593 38.0120303,12.6238 L38.9452727,12.7771 L34.4756061,0 L33.9466061,1.5141 L30.0045455,12.7764 L30.9412727,12.6231 C31.1266667,12.593 31.3169394,12.5811 31.5030303,12.5552 L31.5030303,12.5552 Z" id="Shape"></path>
                <path d="M47.9745152,16.9862 L47.9696364,16.9862 L48.1529394,17.1423 C48.529303,17.4405 48.8715152,17.7765 49.2269697,18.0985 C49.8793333,18.6851 50.4975455,19.313 51.0788182,19.9717 C51.3833939,20.3161 51.6956364,20.6514 51.9779091,21.0147 L52.2127879,21.3024 L52.2169697,21.294 C52.3298788,21.4417 52.4518485,21.5824 52.5605758,21.735 L53.1146667,22.5176 L58.8786061,10.22 L57.4449394,10.9165 L46.7729394,16.0769 L47.5396061,16.6376 C47.6894545,16.7461 47.8288485,16.8707 47.9745152,16.9862 L47.9745152,16.9862 Z" id="Shape"></path>
                <path d="M56.3618485,39.5353 L68.9526061,34.9951 L56.3618485,30.4626 L56.5137879,31.4104 C56.5416667,31.5973 56.556303,31.7898 56.580697,31.9788 L56.5263333,31.9564 L56.6176364,32.9777 C56.6733939,33.6469 56.7082424,34.321 56.7082424,35.0007 C56.7082424,35.6783 56.6733939,36.3531 56.6176364,37.0216 L56.5263333,38.0408 L56.580697,38.0205 C56.556303,38.2102 56.5416667,38.402 56.5137879,38.5889 L56.3618485,39.5353 L56.3618485,39.5353 Z" id="Shape"></path>
                <path d="M37.4509697,57.4434 L37.4704848,57.3867 L36.4682424,57.4798 C35.8075152,57.5372 35.144697,57.5722 34.4749091,57.5722 C33.8058182,57.5722 33.143,57.5372 32.4822727,57.4798 L31.4800303,57.3867 L31.5002424,57.4434 C31.3141515,57.4161 31.1245758,57.4028 30.9412727,57.3734 L30.0080303,57.2236 L30.3230606,58.1266 L34.4728182,70 L38.9438788,57.2215 L38.0106364,57.3734 C37.8266364,57.4028 37.6377576,57.4154 37.4509697,57.4434 L37.4509697,57.4434 Z" id="Shape"></path>
                <path d="M52.5605758,48.2615 C52.4581212,48.4085 52.3403333,48.5415 52.233,48.685 L52.2169697,48.6479 L51.5680909,49.4361 C50.8711212,50.2845 50.0863333,51.1014 49.2757576,51.8455 C48.8596667,52.2207 48.461697,52.6204 48.0205152,52.9634 C47.8727576,53.0768 47.7340606,53.2014 47.5842121,53.3134 L46.8224242,53.8748 L58.8862727,59.7331 L53.1146667,47.4866 L52.5605758,48.2615 L52.5605758,48.2615 Z" id="Shape"></path>
                <path d="M20.9334848,52.9774 L20.976697,52.9571 L20.2128182,52.3054 C19.2154545,51.4577 18.2668788,50.4938 17.4312121,49.4823 L16.7865152,48.7046 L16.766303,48.748 C16.6436364,48.5842 16.5091212,48.4295 16.3906364,48.2629 L15.8344545,47.4831 L15.4288182,48.3525 L10.1311515,59.7142 L22.1852424,53.9266 L21.412303,53.3603 C21.2478182,53.2413 21.0937879,53.1034 20.9334848,52.9774 L20.9334848,52.9774 Z" id="Shape"></path>
                <path d="M50.3351515,46.7726 C52.8965152,43.2145 54.1371212,39.0845 54.1371212,34.9944 C54.1371212,28.8568 51.3541212,22.7983 46.1073333,18.8902 C42.6029697,16.282 38.5354545,15.0262 34.5048788,15.0262 C28.4607576,15.0262 22.494,17.85 18.6481212,23.1812 C16.0783939,26.7302 14.8419697,30.8665 14.8419697,34.9601 C14.8419697,41.0956 17.6235758,47.1576 22.8745455,51.0636 C26.3698485,53.6648 30.4429394,54.9262 34.4728182,54.9262 C40.5169394,54.9269 46.4871818,52.101 50.3351515,46.7726 L50.3351515,46.7726 Z" id="Shape"></path>
            </g>
            <g id="noun_9980_cc" transform="translate(438.000000, 205.000000)" fill="#FFFFFF" sketch:type="MSShapeGroup">
                <path d="M1.035,7.92 L6.348,7.92 C6.831,7.92 7.245,7.488 7.245,6.984 L7.245,6.984 L7.245,1.44 C7.245,0.936 6.831,0.504 6.348,0.504 L6.348,0.504 L1.035,0.504 C0.552,0.504 0.138,0.936 0.138,1.44 L0.138,1.44 L0.138,6.984 C0.138,7.56 0.552,7.92 1.035,7.92 L1.035,7.92 L1.035,7.92 Z" id="Shape"></path>
                <path d="M58.305,35.496 L67.965,35.496 C68.448,35.496 68.862,35.064 68.862,34.56 L68.862,34.56 L68.862,29.016 C68.862,28.512 68.448,28.08 67.965,28.08 L67.965,28.08 L58.305,28.08 C57.822,28.08 57.408,28.512 57.408,29.016 L57.408,29.016 L57.408,34.56 C57.339,35.136 57.822,35.496 58.305,35.496 L58.305,35.496 L58.305,35.496 Z" id="Shape"></path>
                <path d="M54.717,35.496 L14.145,35.496 C13.662,35.496 13.248,35.064 13.248,34.56 L13.248,34.56 L13.248,29.016 C13.248,28.512 13.662,28.08 14.145,28.08 L14.145,28.08 L54.717,28.08 C55.2,28.08 55.614,28.512 55.614,29.016 L55.614,29.016 L55.614,34.56 C55.614,35.136 55.2,35.496 54.717,35.496 L54.717,35.496 L54.717,35.496 Z" id="Shape"></path>
                <path d="M1.035,35.496 L10.695,35.496 C11.178,35.496 11.592,35.064 11.592,34.56 L11.592,34.56 L11.592,29.016 C11.592,28.512 11.178,28.08 10.695,28.08 L10.695,28.08 L1.035,28.08 C0.552,28.08 0.138,28.512 0.138,29.016 L0.138,29.016 L0.138,34.56 C0.138,35.136 0.552,35.496 1.035,35.496 L1.035,35.496 L1.035,35.496 Z" id="Shape"></path>
                <path d="M1.035,17.136 L9.867,17.136 C10.35,17.136 10.764,16.704 10.764,16.2 L10.764,16.2 L10.764,10.656 C10.764,10.152 10.35,9.72 9.867,9.72 L9.867,9.72 L1.035,9.72 C0.552,9.72 0.138,10.152 0.138,10.656 L0.138,10.656 L0.138,16.2 C0.138,16.704 0.552,17.136 1.035,17.136 L1.035,17.136 L1.035,17.136 Z" id="Shape"></path>
                <path d="M57.339,17.136 L67.896,17.136 C68.379,17.136 68.793,16.704 68.793,16.2 L68.793,16.2 L68.793,10.656 C68.793,10.152 68.379,9.72 67.896,9.72 L67.896,9.72 L57.339,9.72 C56.856,9.72 56.442,10.152 56.442,10.656 L56.442,10.656 L56.442,16.2 C56.58,16.704 56.925,17.136 57.339,17.136 L57.339,17.136 L57.339,17.136 Z" id="Shape"></path>
                <path d="M9.798,7.92 L15.111,7.92 C15.594,7.92 16.008,7.488 16.008,6.984 L16.008,6.984 L16.008,1.44 C16.008,0.936 15.594,0.504 15.111,0.504 L15.111,0.504 L9.798,0.504 C9.315,0.504 8.901,0.936 8.901,1.44 L8.901,1.44 L8.901,6.984 C8.97,7.56 9.315,7.92 9.798,7.92 L9.798,7.92 L9.798,7.92 Z" id="Shape"></path>
                <path d="M18.63,7.92 L23.943,7.92 C24.426,7.92 24.84,7.488 24.84,6.984 L24.84,6.984 L24.84,1.44 C24.84,0.936 24.426,0.504 23.943,0.504 L23.943,0.504 L18.63,0.504 C18.147,0.504 17.733,0.936 17.733,1.44 L17.733,1.44 L17.733,6.984 C17.733,7.56 18.147,7.92 18.63,7.92 L18.63,7.92 L18.63,7.92 Z" id="Shape"></path>
                <path d="M27.462,7.92 L32.775,7.92 C33.258,7.92 33.672,7.488 33.672,6.984 L33.672,6.984 L33.672,1.44 C33.672,0.936 33.258,0.504 32.775,0.504 L32.775,0.504 L27.462,0.504 C26.979,0.504 26.565,0.936 26.565,1.44 L26.565,1.44 L26.565,6.984 C26.565,7.56 26.91,7.92 27.462,7.92 L27.462,7.92 L27.462,7.92 Z" id="Shape"></path>
                <path d="M36.225,7.92 L41.538,7.92 C42.021,7.92 42.435,7.488 42.435,6.984 L42.435,6.984 L42.435,1.44 C42.435,0.936 42.021,0.504 41.538,0.504 L41.538,0.504 L36.225,0.504 C35.742,0.504 35.328,0.936 35.328,1.44 L35.328,1.44 L35.328,6.984 C35.397,7.56 35.742,7.92 36.225,7.92 L36.225,7.92 L36.225,7.92 Z" id="Shape"></path>
                <path d="M45.057,7.92 L50.37,7.92 C50.853,7.92 51.267,7.488 51.267,6.984 L51.267,6.984 L51.267,1.44 C51.267,0.936 50.853,0.504 50.37,0.504 L50.37,0.504 L45.057,0.504 C44.574,0.504 44.16,0.936 44.16,1.44 L44.16,1.44 L44.16,6.984 C44.16,7.56 44.505,7.92 45.057,7.92 L45.057,7.92 L45.057,7.92 Z" id="Shape"></path>
                <path d="M53.82,7.92 L59.133,7.92 C59.616,7.92 60.03,7.488 60.03,6.984 L60.03,6.984 L60.03,1.44 C60.03,0.936 59.616,0.504 59.133,0.504 L59.133,0.504 L53.82,0.504 C53.337,0.504 52.923,0.936 52.923,1.44 L52.923,1.44 L52.923,6.984 C52.992,7.56 53.337,7.92 53.82,7.92 L53.82,7.92 L53.82,7.92 Z" id="Shape"></path>
                <path d="M62.652,7.92 L67.965,7.92 C68.448,7.92 68.862,7.488 68.862,6.984 L68.862,6.984 L68.862,1.44 C68.862,0.936 68.448,0.504 67.965,0.504 L67.965,0.504 L62.652,0.504 C62.169,0.504 61.755,0.936 61.755,1.44 L61.755,1.44 L61.755,6.984 C61.755,7.56 62.169,7.92 62.652,7.92 L62.652,7.92 L62.652,7.92 Z" id="Shape"></path>
                <path d="M13.317,17.136 L18.63,17.136 C19.113,17.136 19.527,16.704 19.527,16.2 L19.527,16.2 L19.527,10.656 C19.527,10.152 19.113,9.72 18.63,9.72 L18.63,9.72 L13.317,9.72 C12.834,9.72 12.42,10.152 12.42,10.656 L12.42,10.656 L12.42,16.2 C12.42,16.704 12.765,17.136 13.317,17.136 L13.317,17.136 L13.317,17.136 Z" id="Shape"></path>
                <path d="M22.08,17.136 L27.393,17.136 C27.876,17.136 28.29,16.704 28.29,16.2 L28.29,16.2 L28.29,10.656 C28.29,10.152 27.876,9.72 27.393,9.72 L27.393,9.72 L22.08,9.72 C21.597,9.72 21.183,10.152 21.183,10.656 L21.183,10.656 L21.183,16.2 C21.252,16.704 21.597,17.136 22.08,17.136 L22.08,17.136 L22.08,17.136 Z" id="Shape"></path>
                <path d="M30.912,17.136 L36.225,17.136 C36.708,17.136 37.122,16.704 37.122,16.2 L37.122,16.2 L37.122,10.656 C37.122,10.152 36.708,9.72 36.225,9.72 L36.225,9.72 L30.912,9.72 C30.429,9.72 30.015,10.152 30.015,10.656 L30.015,10.656 L30.015,16.2 C30.015,16.704 30.498,17.136 30.912,17.136 L30.912,17.136 L30.912,17.136 Z" id="Shape"></path>
                <path d="M39.744,17.136 L45.057,17.136 C45.54,17.136 45.954,16.704 45.954,16.2 L45.954,16.2 L45.954,10.656 C45.954,10.152 45.54,9.72 45.057,9.72 L45.057,9.72 L39.744,9.72 C39.261,9.72 38.847,10.152 38.847,10.656 L38.847,10.656 L38.847,16.2 C38.847,16.704 39.33,17.136 39.744,17.136 L39.744,17.136 L39.744,17.136 Z" id="Shape"></path>
                <path d="M48.507,17.136 L53.82,17.136 C54.303,17.136 54.717,16.704 54.717,16.2 L54.717,16.2 L54.717,10.656 C54.717,10.152 54.303,9.72 53.82,9.72 L53.82,9.72 L48.507,9.72 C48.024,9.72 47.61,10.152 47.61,10.656 L47.61,10.656 L47.61,16.2 C47.679,16.704 48.024,17.136 48.507,17.136 L48.507,17.136 L48.507,17.136 Z" id="Shape"></path>
                <path d="M1.035,26.352 L6.348,26.352 C6.831,26.352 7.245,25.92 7.245,25.416 L7.245,25.416 L7.245,19.872 C7.245,19.368 6.831,18.936 6.348,18.936 L6.348,18.936 L1.035,18.936 C0.552,18.936 0.138,19.368 0.138,19.872 L0.138,19.872 L0.138,25.416 C0.138,25.92 0.552,26.352 1.035,26.352 L1.035,26.352 L1.035,26.352 Z" id="Shape"></path>
                <path d="M9.798,26.352 L15.111,26.352 C15.594,26.352 16.008,25.92 16.008,25.416 L16.008,25.416 L16.008,19.872 C16.008,19.368 15.594,18.936 15.111,18.936 L15.111,18.936 L9.798,18.936 C9.315,18.936 8.901,19.368 8.901,19.872 L8.901,19.872 L8.901,25.416 C8.97,25.92 9.315,26.352 9.798,26.352 L9.798,26.352 L9.798,26.352 Z" id="Shape"></path>
                <path d="M18.63,26.352 L23.943,26.352 C24.426,26.352 24.84,25.92 24.84,25.416 L24.84,25.416 L24.84,19.872 C24.84,19.368 24.426,18.936 23.943,18.936 L23.943,18.936 L18.63,18.936 C18.147,18.936 17.733,19.368 17.733,19.872 L17.733,19.872 L17.733,25.416 C17.733,25.92 18.147,26.352 18.63,26.352 L18.63,26.352 L18.63,26.352 Z" id="Shape"></path>
                <path d="M27.462,26.352 L32.775,26.352 C33.258,26.352 33.672,25.92 33.672,25.416 L33.672,25.416 L33.672,19.872 C33.672,19.368 33.258,18.936 32.775,18.936 L32.775,18.936 L27.462,18.936 C26.979,18.936 26.565,19.368 26.565,19.872 L26.565,19.872 L26.565,25.416 C26.565,25.92 26.91,26.352 27.462,26.352 L27.462,26.352 L27.462,26.352 Z" id="Shape"></path>
                <path d="M36.225,26.352 L41.538,26.352 C42.021,26.352 42.435,25.92 42.435,25.416 L42.435,25.416 L42.435,19.872 C42.435,19.368 42.021,18.936 41.538,18.936 L41.538,18.936 L36.225,18.936 C35.742,18.936 35.328,19.368 35.328,19.872 L35.328,19.872 L35.328,25.416 C35.397,25.92 35.742,26.352 36.225,26.352 L36.225,26.352 L36.225,26.352 Z" id="Shape"></path>
                <path d="M45.057,26.352 L50.37,26.352 C50.853,26.352 51.267,25.92 51.267,25.416 L51.267,25.416 L51.267,19.872 C51.267,19.368 50.853,18.936 50.37,18.936 L50.37,18.936 L45.057,18.936 C44.574,18.936 44.16,19.368 44.16,19.872 L44.16,19.872 L44.16,25.416 C44.16,25.92 44.505,26.352 45.057,26.352 L45.057,26.352 L45.057,26.352 Z" id="Shape"></path>
                <path d="M53.82,26.352 L59.133,26.352 C59.616,26.352 60.03,25.92 60.03,25.416 L60.03,25.416 L60.03,19.872 C60.03,19.368 59.616,18.936 59.133,18.936 L59.133,18.936 L53.82,18.936 C53.337,18.936 52.923,19.368 52.923,19.872 L52.923,19.872 L52.923,25.416 C52.992,25.92 53.337,26.352 53.82,26.352 L53.82,26.352 L53.82,26.352 Z" id="Shape"></path>
                <path d="M62.652,26.352 L67.965,26.352 C68.448,26.352 68.862,25.92 68.862,25.416 L68.862,25.416 L68.862,19.872 C68.862,19.368 68.448,18.936 67.965,18.936 L67.965,18.936 L62.652,18.936 C62.169,18.936 61.755,19.368 61.755,19.872 L61.755,19.872 L61.755,25.416 C61.755,25.92 62.169,26.352 62.652,26.352 L62.652,26.352 L62.652,26.352 Z" id="Shape"></path>
            </g>
            <g id="noun_36414_cc" transform="translate(14.000000, 272.000000)" fill="#FFFFFF" sketch:type="MSShapeGroup">
                <path d="M0.00303296703,56.7960989 C0.00303296703,63.1168022 5.12647253,68.2417582 11.4486923,68.2417582 L32.3056484,68.2417582 L32.3056484,35.9376264 L0.00303296703,35.9376264 L0.00303296703,56.7960989 L0.00303296703,56.7960989 Z M8.7448022,45.0714066 L11.4661319,42.3500769 L17.1567363,48.0770769 L22.8852527,42.3500769 L25.6043077,45.0714066 L19.8424286,50.7984066 L25.6043077,56.5254066 L22.8852527,59.245978 L17.1567363,53.4818242 L11.3933407,59.245978 L8.67276923,56.5254066 L14.4361648,50.7984066 L8.7448022,45.0714066 L8.7448022,45.0714066 Z" id="Shape"></path>
                <path d="M68.244033,11.4464176 C68.244033,5.12647253 63.1175604,0 56.7983736,0 L35.9376264,0 L35.9376264,32.3033736 L68.2432747,32.3033736 L68.2432747,11.4464176 L68.244033,11.4464176 Z M58.2352418,19.2100549 L46.0427143,19.2100549 L46.0427143,14.6871429 L58.2352418,14.6871429 L58.2352418,19.2100549 L58.2352418,19.2100549 Z" id="Shape"></path>
                <path d="M0,11.4456593 L0,32.3056484 L32.3056484,32.3056484 L32.3056484,0 L11.4494505,0 C5.12647253,0 0,5.12647253 0,11.4456593 L0,11.4456593 Z M15.3445385,8.24436264 L18.9325385,8.24436264 L18.9325385,14.9168901 L25.6050659,14.9168901 L25.6050659,18.5033736 L18.9325385,18.5033736 L18.9325385,25.1759011 L15.3445385,25.1759011 L15.3445385,18.5033736 L8.67352747,18.5033736 L8.67352747,14.9168901 L15.3445385,14.9168901 L15.3445385,8.24436264 L15.3445385,8.24436264 Z" id="Shape"></path>
                <path d="M35.9391429,35.9376264 L35.9391429,68.2417582 L56.7953407,68.2417582 C63.1183187,68.2417582 68.2447912,63.1168022 68.2447912,56.7960989 L68.2447912,35.9376264 L35.9391429,35.9376264 L35.9391429,35.9376264 Z M50.1607253,41.3787692 C50.7301648,40.8305604 51.3943846,40.5560769 52.1549011,40.5560769 C52.5355385,40.5560769 52.8941868,40.6303846 53.2278132,40.7752088 C53.562956,40.9215495 53.8594286,41.120967 54.1157143,41.3787692 C54.3727582,41.6358132 54.5797582,41.9375934 54.735956,42.2848681 C54.8929121,42.6306264 54.9717692,43.0044396 54.9717692,43.4063077 C54.9717692,43.7634396 54.8929121,44.1107143 54.735956,44.4466154 C54.579,44.7832747 54.3773077,45.0835385 54.1331538,45.3511978 C53.8867253,45.6203736 53.5970769,45.8326813 53.2604176,45.9881209 C52.926033,46.1450769 52.5673846,46.2239341 52.1882637,46.2239341 C51.7856374,46.2239341 51.4118242,46.1503846 51.0660659,46.0063187 C50.718033,45.859978 50.4177692,45.659044 50.1614835,45.402 C49.9051978,45.144956 49.6974396,44.8439341 49.5412418,44.4981758 C49.3842857,44.1509011 49.3054286,43.7884615 49.3054286,43.4070659 C49.3046703,42.6025714 49.5897692,41.9262198 50.1607253,41.3787692 L50.1607253,41.3787692 Z M54.7367143,58.326989 C54.5797582,58.6621319 54.3780659,58.9639121 54.1339121,59.2330879 C53.8874835,59.5007473 53.5978352,59.7176044 53.2611758,59.8851758 C52.9267912,60.0535055 52.5681429,60.1369121 52.189022,60.1369121 C51.7863956,60.1369121 51.4125824,60.0588132 51.0668242,59.9026154 C50.7187912,59.7471758 50.4185275,59.5394176 50.1622418,59.2823736 C49.905956,59.0245714 49.6981978,58.7243077 49.542,58.377033 C49.3858022,58.0297582 49.3061868,57.6786923 49.3061868,57.320044 C49.3061868,56.9174176 49.385044,56.5496703 49.542,56.2145275 C49.698956,55.8778681 49.905956,55.5829121 50.1622418,55.3266264 C50.4185275,55.0703407 50.7187912,54.8686484 51.0668242,54.7223077 C51.4125824,54.5782418 51.7765385,54.5054505 52.1564176,54.5054505 C52.5370549,54.5054505 52.8957033,54.5782418 53.2293297,54.7223077 C53.5644725,54.8686484 53.8609451,55.0703407 54.1172308,55.3266264 C54.3742747,55.5836703 54.5812747,55.8786264 54.7374725,56.2145275 C54.8944286,56.5504286 54.9732857,56.9181758 54.9732857,57.320044 C54.9725275,57.6567033 54.8936703,57.9926044 54.7367143,58.326989 L54.7367143,58.326989 Z M60.6047473,52.1571758 L43.6732088,52.1571758 L43.6732088,48.5714505 L60.6047473,48.5714505 L60.6047473,52.1571758 L60.6047473,52.1571758 Z" id="Shape"></path>
            </g>
            <g id="noun_792_cc" transform="translate(143.000000, 285.000000)" fill="#FFFFFF" sketch:type="MSShapeGroup">
                <path d="M56.1321765,24.6338125 C56.0016176,26.411 55.6593235,28.1881875 55.0971765,29.9261875 C56.8884706,32.2554375 57.5974118,34.20175 56.8965882,35.4365 C54.9923235,38.7880625 43.4212941,35.6228125 31.0527059,28.364875 C18.6841176,21.107625 10.2011765,12.5063125 12.1054412,9.1540625 C12.8062647,7.92 14.8180882,7.5700625 17.6964706,7.981875 C18.8965294,6.617875 20.24,5.4278125 21.6896765,4.4240625 C11.0799118,0.3128125 2.94670588,-0.61325 1.07491176,2.6819375 C-1.76761765,7.684875 10.8938824,20.521875 29.3547647,31.354125 C47.8149706,42.186375 65.0845882,46.9115625 67.9271176,41.908625 C69.7995882,38.61275 64.9425294,31.9165 56.1321765,24.6338125 L56.1321765,24.6338125 Z" id="Shape"></path>
                <path d="M15.4275882,14.8218125 C15.8984118,15.382125 16.4456765,15.984375 17.0829118,16.630625 C20.5998824,20.1966875 25.7904412,24.069375 31.6967059,27.5350625 C37.6029706,31.0014375 43.4984118,33.6325 48.2959412,34.9449375 C49.1631765,35.1828125 49.9478824,35.3629375 50.6588529,35.4963125 C53.5081471,31.906875 55.2148824,27.341875 55.2148824,22.37125 C55.2148824,10.817125 45.9986471,1.450625 34.6298824,1.450625 C25.8810882,1.450625 18.4074412,6.99875 15.4275882,14.8218125 L15.4275882,14.8218125 Z" id="Shape"></path>
                <path d="M14.0469118,22.2193125 C14.0469118,22.2701875 14.0455588,22.320375 14.0455588,22.37125 C14.0455588,33.925375 23.2617941,43.2925625 34.6305588,43.2925625 C38.4350294,43.2925625 41.998,42.2420625 45.0556471,40.4133125 C39.9388235,38.2999375 34.4519706,35.553375 28.9698529,32.335875 C23.4884118,29.1204375 18.4054118,25.66575 14.0469118,22.2193125 L14.0469118,22.2193125 Z" id="Shape"></path>
            </g>
            <g id="noun_1647" transform="translate(272.000000, 303.000000)" fill="#FFFFFF" sketch:type="MSShapeGroup">
                <path d="M38.2619375,26.4874356 L54.4021875,71.0824851 L49.9466563,72.7137822 L38.056375,39.8637822 L38.056375,72.7022178 L33.3140625,72.7022178 L33.3140625,39.8045149 L21.4374375,72.6183762 L16.9819063,70.987802 L32.2984688,28.6694851 L38.2619375,26.4874356 L38.2619375,26.4874356 Z" id="path2886"></path>
                <path d="M2.5889375,33.1730792 L15.5638125,28.4244653 L16.1043125,29.9177129 L59.179,14.1518812 L59.7195,15.6458515 L68.6305625,12.3839802 L64.3065625,0.435831683 L55.3940625,3.69770297 L55.9345625,5.1909505 L12.8605937,20.957505 L13.4010937,22.4507525 L5.58109375,25.3129307 L3.68934375,20.0851188 L0.36871875,21.300099 L2.2611875,26.5271881 L0.42621875,27.1993663 L0.508875,27.4277624 L2.5889375,33.1730792 L2.5889375,33.1730792 Z" id="path3815"></path>
            </g>
            <g id="noun_582_cc" transform="translate(643.000000, 367.000000)" fill="#FFFFFF" sketch:type="MSShapeGroup">
                <path d="M8.51667,9.09922034 C3.35409,12.8767797 0,17.0942203 0,20.2004915 C0,23.3067627 3.35409,27.5235085 8.51667,31.3010678 L8.51667,9.09922034 L8.51667,9.09922034 Z" id="Shape"></path>
                <path d="M60.48264,9.09922034 L60.48264,31.3010678 C65.64591,27.5228136 69,23.3067627 69,20.2004915 C69,17.0942203 65.64591,12.8767797 60.48264,9.09922034 L60.48264,9.09922034 Z" id="Shape"></path>
                <path d="M34.5,0 C27.21084,0 19.71813,2.48154237 13.58541,5.87342373 L13.58541,34.5275593 C19.71813,37.9194407 27.21084,40.4009831 34.5,40.4009831 C41.78916,40.4009831 49.28187,37.9194407 55.41528,34.5275593 L55.41528,5.87342373 C49.28187,2.48154237 41.78916,0 34.5,0 L34.5,0 Z M45.97608,23.8585254 L43.84191,23.8585254 L43.84191,21.2748305 L40.50714,21.2748305 L40.50714,23.8585254 L38.37297,23.8585254 L38.37297,21.2748305 L35.0382,21.2748305 L35.0382,23.8585254 L32.90403,23.8585254 L32.90403,21.2748305 L29.56926,21.2748305 L29.56926,23.8585254 L27.4344,23.8585254 L27.4344,21.2748305 L24.09963,21.2748305 L24.09963,23.8585254 L21.96546,23.8585254 L21.96546,16.5424576 L24.09963,16.5424576 L24.09963,19.1254576 L27.4344,19.1254576 L27.4344,16.5424576 L29.56857,16.5424576 L29.56857,19.1254576 L32.90334,19.1254576 L32.90334,16.5424576 L35.03751,16.5424576 L35.03751,19.1254576 L38.37228,19.1254576 L38.37228,16.5424576 L40.50645,16.5424576 L40.50645,19.1254576 L43.84122,19.1254576 L43.84122,16.5424576 L45.97539,16.5424576 L45.97539,23.8585254 L45.97608,23.8585254 Z" id="Shape"></path>
            </g>
            <g id="noun_405_cc" transform="translate(492.000000, 341.000000)" fill="#FFFFFF" sketch:type="MSShapeGroup">
                <path d="M24.5,13.11 L24.5,13.11 L1.1431,13.11 L10.7156,69 L24.4993,69 L24.5,69 L38.2837,69 L47.8562,13.11 L24.5,13.11 L24.5,13.11 Z M9.4185,44.85 L5.992,24.84 L43.008,24.84 L39.5808,44.85 L9.4185,44.85 L9.4185,44.85 Z" id="Shape"></path>
                <path d="M47.6,6.21 L43.4,6.21 L42,0 L24.5,0 L7,0 L5.6,6.21 L1.4,6.21 L0,10.35 L24.5,10.35 L49,10.35 L47.6,6.21 L47.6,6.21 Z M24.3999,7.91775 C21.3066,7.91775 18.7999,6.68196 18.7999,5.15775 C18.7999,3.63354 21.3066,2.39775 24.3999,2.39775 C27.4911,2.39775 29.9999,3.63354 29.9999,5.15775 C29.9999,6.68196 27.4911,7.91775 24.3999,7.91775 L24.3999,7.91775 Z" id="Shape"></path>
            </g>
            <g id="noun_95953_cc" transform="translate(734.000000, 4.000000)" fill="#FFFFFF" sketch:type="MSShapeGroup">
                <path d="M68.0555556,0 L1.94444444,0 C0.870333333,0 0,0.870333333 0,1.94444444 L0,68.0555556 C0,69.1296667 0.870333333,70 1.94444444,70 L68.0555556,70 C69.1296667,70 70,69.1296667 70,68.0555556 L70,1.94444444 C70,0.870333333 69.1296667,0 68.0555556,0 L68.0555556,0 Z M66.1111111,66.1111111 L3.88888889,66.1111111 L3.88888889,3.88888889 L66.1111111,3.88888889 L66.1111111,66.1111111 L66.1111111,66.1111111 Z" id="Shape"></path>
                <path d="M14.5701111,36.9444444 L20.1778889,36.9444444 L26.4498889,49.4892222 C26.782,50.1526667 27.4586667,50.5641111 28.1882222,50.5641111 C28.259,50.5641111 28.3305556,50.5602222 28.4005556,50.5524444 C29.2094444,50.4637778 29.8775556,49.8804444 30.0751111,49.0917778 L36.5166667,23.3247778 L55.4275556,23.3247778 C56.5016667,23.3247778 57.372,22.4544444 57.372,21.3803333 C57.372,20.3062222 56.5016667,19.4358889 55.4275556,19.4358889 L35,19.4358889 C34.1078889,19.4358889 33.3301111,20.0433333 33.1131111,20.909 L27.5784444,43.0492222 L23.1194444,34.1304444 C22.7896667,33.4716667 22.1168889,33.0555556 21.3803333,33.0555556 L14.5708889,33.0555556 C13.4967778,33.0555556 12.6264444,33.9258889 12.6264444,35 C12.6264444,36.0741111 13.4967778,36.9444444 14.5701111,36.9444444 L14.5701111,36.9444444 Z" id="Shape"></path>
            </g>
            <g id="noun_64877_cc" transform="translate(755.000000, 167.000000)" fill="#FFFFFF" sketch:type="MSShapeGroup">
                <g id="Capa_2" transform="translate(19.000000, 5.000000)">
                    <path d="M0,0 L0,90 L61.998,90 L62,87.691 L2.156,0 L0,0 L0,0 Z M2,88 L2,79.5 L6,79.5 L6,78.5 L2,78.5 L2,71.5 L6,71.5 L6,70.5 L2,70.5 L2,63.5 L6,63.5 L6,62.5 L2,62.5 L2,55.5 L6,55.5 L6,54.5 L2,54.5 L2,47.5 L6,47.5 L6,46.5 L2,46.5 L2,39.5 L6,39.5 L6,38.5 L2,38.5 L2,31.5 L6,31.5 L6,30.5 L2,30.5 L2,23.5 L6,23.5 L6,22.5 L2,22.5 L2,15.5 L6,15.5 L6,14.5 L2,14.5 L2,3.319 L59.789,88 L2,88 L2,88 Z" id="Shape"></path>
                    <path d="M38,74.697 L15.535,41 L13,41 L13,77 L38,77 L38,74.697 L38,74.697 Z M15,75 L15,43.803 L35.799,75 L15,75 L15,75 Z" id="Shape"></path>
                </g>
            </g>
            <g id="noun_108287_cc" transform="translate(949.000000, 25.000000)" fill="#FFFFFF" sketch:type="MSShapeGroup">
                <g id="Group">
                    <path d="M3.94335,69.9701639 L4.255,70 L5.5706,62.3080328 L4.1584,62.1691803 L3.94335,69.9701639 Z" id="Shape"></path>
                    <path d="M41.0182,50.597377 C41.54605,50.1578689 41.61735,49.3672131 41.17345,48.8393443 L16.7785,19.8214754 C16.3346,19.2947541 15.54225,19.2259016 15.0144,19.6665574 L14.1979,20.3516393 C13.6712,20.7922951 13.5999,21.5852459 14.04265,22.1108197 L27.3401,37.927377 L18.8623,40.542623 L17.1672,35.07 L15.2697,35.6552459 L16.9648,41.1267213 L8.487,43.7419672 L10.5179,23.1963934 C10.58575,22.512459 10.07975,21.8996721 9.39435,21.8319672 L8.33175,21.727541 C7.6475,21.6598361 7.03225,22.1636066 6.9644,22.8486885 L3.23955,60.5419672 C3.1717,61.2270492 3.6777,61.8409836 4.36195,61.9052459 L5.4234,62.0108197 C6.10765,62.0785246 6.7229,61.5736066 6.7919,60.8896721 L8.37545,44.8688525 L17.27185,42.1227869 L18.9681,47.5931148 L20.86445,47.0078689 L19.16935,41.537541 L28.06575,38.7914754 L38.43645,51.127541 C38.88035,51.6542623 39.6727,51.7242623 40.1994,51.282459 L41.0182,50.597377 L41.0182,50.597377 Z" id="Shape"></path>
                    <path d="M41.3333,50.6983607 L40.24655,51.6083607 L45.6849,57.217541 L45.9241,57.0167213 L41.3333,50.6983607 Z" id="Shape"></path>
                    <path d="M5.80865,28.3086885 C4.24005,27.1278689 3.0107,25.4719672 2.3874,23.4614754 C0.80845,18.3686885 3.6777,12.9431148 8.78255,11.367541 C13.8874,9.79196721 19.3246,12.655082 20.9024,17.7490164 C21.5142,19.7239344 21.4521,21.7459016 20.85525,23.5762295 L22.2295,25.2252459 C23.3059,22.7752459 23.5474,19.9465574 22.69525,17.1959016 C20.81155,11.115082 14.3221,7.69770492 8.22825,9.57737705 C2.1344,11.4570492 -1.2903,17.9337705 0.5934,24.0145902 C1.44325,26.7560656 3.23265,28.9478689 5.49585,30.365082 L5.80865,28.3086885 L5.80865,28.3086885 Z" id="Shape"></path>
                    <path d="M7.9465,8.66967213 C8.8642,8.38622951 9.2828,7.08147541 8.87685,5.76868852 L8.04195,3.07196721 C7.63485,1.75918033 6.5504,0.919180328 5.6327,1.20147541 C4.715,1.48491803 4.29525,2.79081967 4.70235,4.10245902 L5.53725,6.79918033 C5.94435,8.11081967 7.0288,8.95311475 7.9465,8.66967213 L7.9465,8.66967213 Z" id="Shape"></path>
                </g>
            </g>
            <g id="noun_77532_cc" transform="translate(856.000000, 169.000000)" fill="#FFFFFF" sketch:type="MSShapeGroup">
                <g id="Page-1">
                    <g id="ic_invitation_filled">
                        <path d="M11.7758096,37.4206477 L0,28 L70,0 L35,56 L14.4567998,39.5654398 L50.3329825,13.8412662 L11.7758096,37.4206477 L11.7758096,37.4206477 Z" id="Rectangle-104"></path>
                        <path d="M15.329101,43.5454192 L19.25,56 L24.5330321,51.4632101 L15.329101,43.5454192 L15.329101,43.5454192 Z" id="Rectangle-105"></path>
                    </g>
                </g>
            </g>
            <g id="noun_13589" transform="translate(1000.000000, 0.000000)">
                <g id="Captions"></g>
                <g id="Your_Icon" transform="translate(32.000000, 0.000000)" fill="#FFFFFF" sketch:type="MSShapeGroup">
                    <g id="Group">
                        <path d="M8.66666667,42.7 L8.66666667,60.2378 C8.66666667,62.5366 10.6282222,64.4 13,64.4 C15.3710556,64.4 17.3333333,62.5366 17.3333333,60.2378 L17.3333333,42.7 L8.66666667,42.7 L8.66666667,42.7 Z" id="Shape"></path>
                        <ellipse id="Oval" cx="14.5708333" cy="38.2256" rx="2.68377778" ry="2.6012"></ellipse>
                        <ellipse id="Oval" cx="10.2765" cy="28.8603" rx="1.60983333" ry="1.5603"></ellipse>
                        <path d="M23.0526111,2.8 L20.2222222,5.7617 L20.2222222,34.6535 L20.2222222,60.2749 C20.2222222,60.2749 20.1449444,67.2 13,67.2 C5.85505556,67.2 5.77777778,60.2749 5.77777778,60.2749 L5.77777778,34.6542 L5.77777778,5.7617 L2.91127778,2.8 L23.1111111,2.8 L23.0526111,2.8 Z M22.8077778,0 L2.91127778,0 C1.76222222,0 0.722222222,0.6594 0.262888889,1.68 C-0.196444444,2.7006 0.0274444444,3.8878 0.808888889,4.704 L2.88888889,6.8614 L2.88888889,34.6542 L2.88888889,60.2756 C2.88888889,64.1837 5.63911111,70 13,70 C20.3608889,70 23.1111111,64.1837 23.1111111,60.2749 L23.1111111,34.6542 L23.1111111,6.8425 L25.0408889,4.6809 C25.8086111,3.8605 25.9588333,2.6782 25.4958889,1.6653 C25.0329444,0.6531 23.9734444,0 22.8308889,0 L22.8077778,0 L22.8077778,0 Z" id="Shape"></path>
                    </g>
                </g>
            </g>
            <g transform="translate(1153.000000, 21.000000)" fill="#FFFFFF" sketch:type="MSShapeGroup">
                <path d="M70,31 C70,23.9119775 54.3299662,18.166 35,18.166 C15.6700338,18.166 0,23.9119775 0,31 C0,38.0880225 15.6700338,43.834 35,43.834 C54.3299662,43.834 70,38.0880225 70,31 L70,31 Z M2.8,31 C2.8,25.6179012 17.0353546,20.398 35,20.398 C52.9646454,20.398 67.2,25.6179012 67.2,31 C67.2,36.3820988 52.9646454,41.602 35,41.602 C17.0353546,41.602 2.8,36.3820988 2.8,31 L2.8,31 Z" id="Oval-14"></path>
                <path d="M48.8793103,7.42736462 C41.7098688,3.57783516 28.6032173,12.2074838 19.6047847,26.7022241 C10.6063522,41.1969645 9.12366194,56.0679335 16.2931034,59.917463 C23.462545,63.7669924 36.5691965,55.1373438 45.5676291,40.6426034 C54.5660616,26.1478631 56.0487518,11.2768941 48.8793103,7.42736462 L48.8793103,7.42736462 L48.8793103,7.42736462 Z M17.5965517,57.817859 C12.1526296,54.8948226 13.4995712,41.3853739 21.8624234,27.914431 C30.2252755,14.4434882 42.1319399,6.60393214 47.5758621,9.52696855 C53.0197842,12.450005 51.6728426,25.9594537 43.3099904,39.4303966 C34.9471383,52.9013394 23.0404739,60.7408954 17.5965517,57.817859 L17.5965517,57.817859 L17.5965517,57.817859 Z" id="Oval-15"></path>
                <path d="M16.2931034,4.31295142 C9.12366194,8.40219517 10.6063522,24.1991952 19.6047847,39.5965385 C28.6032173,54.9938817 41.7098688,64.1609077 48.8793103,60.071664 C56.0487518,55.9824202 54.5660616,40.1854202 45.5676291,24.7880769 C36.5691965,9.39073367 23.462545,0.223707682 16.2931034,4.31295142 L16.2931034,4.31295142 L16.2931034,4.31295142 Z M47.5758621,57.8413155 C42.1319399,60.9463725 30.2252755,52.618639 21.8624234,38.3088462 C13.4995712,23.9990534 12.1526296,9.64835692 17.5965517,6.54329993 C23.0404739,3.43824293 34.9471383,11.7659764 43.3099904,26.0757692 C51.6728426,40.385562 53.0197842,54.7362585 47.5758621,57.8413155 L47.5758621,57.8413155 L47.5758621,57.8413155 Z" id="Oval-16"></path>
                <circle id="Oval-14" cx="33.0000002" cy="31.5460002" r="8.80000019"></circle>
                <ellipse id="Oval-16" cx="63.2" cy="37.0807692" rx="4.4" ry="4.40676923"></ellipse>
                <ellipse id="Oval-17" cx="13.2" cy="49.3567692" rx="4.4" ry="4.40676923"></ellipse>
                <ellipse id="Oval-18" cx="22" cy="5.06476923" rx="4.4" ry="4.40676923"></ellipse>
            </g>
            <g id="noun_17178_cc" transform="translate(750.000000, 276.000000)">
                <g id="Captions" transform="translate(7.000000, 0.000000)"></g>
                <g id="Your_Icon" transform="translate(0.000000, 31.000000)" fill="#FFFFFF" sketch:type="MSShapeGroup">
                    <path d="M10.5564831,63.6436364 C8.41365292,63.6436364 6.65866115,61.9209091 6.65866115,59.8154545 C6.65866115,57.71 8.41365292,55.9872727 10.5564831,55.9872727 C12.6993132,55.9872727 14.454305,57.71 14.454305,59.8154545 C14.454305,61.9209091 12.7002388,63.6436364 10.5564831,63.6436364 M25.0342396,63.6436364 C22.8914094,63.6436364 21.1364176,61.9209091 21.1364176,59.8154545 C21.1364176,57.71 22.8914094,55.9872727 25.0342396,55.9872727 C27.1770697,55.9872727 28.9320615,57.71 28.9320615,59.8154545 C28.9320615,61.9209091 27.1770697,63.6436364 25.0342396,63.6436364 M39.5119961,63.6436364 C37.3691659,63.6436364 35.6141741,61.9209091 35.6141741,59.8154545 C35.6141741,57.71 37.3691659,55.9872727 39.5119961,55.9872727 C41.6548262,55.9872727 43.409818,57.71 43.409818,59.8154545 L43.409818,59.8154545 C43.4088924,61.9209091 41.6548262,63.6436364 39.5119961,63.6436364 M10.5564831,49.4245455 C8.41365292,49.4245455 6.65866115,47.7018182 6.65866115,45.5963636 C6.65866115,43.4909091 8.41365292,41.7681818 10.5564831,41.7681818 C12.6993132,41.7681818 14.454305,43.4909091 14.454305,45.5963636 C14.454305,47.7018182 12.7002388,49.4245455 10.5564831,49.4245455 M25.0342396,49.4245455 C22.8914094,49.4245455 21.1364176,47.7018182 21.1364176,45.5963636 C21.1364176,43.4909091 22.8914094,41.7681818 25.0342396,41.7681818 C27.1770697,41.7681818 28.9320615,43.4909091 28.9320615,45.5963636 C28.9320615,47.7018182 27.1770697,49.4245455 25.0342396,49.4245455 M39.5119961,49.4245455 C37.3691659,49.4245455 35.6141741,47.7018182 35.6141741,45.5963636 C35.6141741,43.4909091 37.3691659,41.7681818 39.5119961,41.7681818 C41.6548262,41.7681818 43.409818,43.4909091 43.409818,45.5963636 L43.409818,45.5963636 C43.4088924,47.7027273 41.6548262,49.4245455 39.5119961,49.4245455 M10.5564831,35.2063636 C8.41365292,35.2063636 6.65866115,33.4836364 6.65866115,31.3781818 C6.65866115,29.2727273 8.41365292,27.55 10.5564831,27.55 C12.6993132,27.55 14.454305,29.2727273 14.454305,31.3781818 C14.454305,33.4836364 12.7002388,35.2063636 10.5564831,35.2063636 M25.0342396,35.2063636 C22.8914094,35.2063636 21.1364176,33.4836364 21.1364176,31.3781818 C21.1364176,29.2727273 22.8914094,27.55 25.0342396,27.55 C27.1770697,27.55 28.9320615,29.2727273 28.9320615,31.3781818 C28.9320615,33.4836364 27.1770697,35.2063636 25.0342396,35.2063636 M39.5119961,35.2063636 C37.3691659,35.2063636 35.6141741,33.4836364 35.6141741,31.3781818 C35.6141741,29.2727273 37.3691659,27.55 39.5119961,27.55 C41.6548262,27.55 43.409818,29.2727273 43.409818,31.3781818 L43.409818,31.3781818 C43.4088924,33.4836364 41.6548262,35.2063636 39.5119961,35.2063636 M9.44758004,10.6027273 L40.5551795,10.6027273 C42.0861691,10.6027273 43.3394702,11.8336364 43.3394702,13.3372727 L43.3394702,16.8627273 C43.3394702,18.3663636 42.0861691,19.5972727 40.5551795,19.5972727 L9.44758004,19.5972727 C7.91659038,19.5972727 6.66328929,18.3663636 6.66328929,16.8627273 L6.66328929,13.3372727 C6.66328929,11.8336364 7.91659038,10.6027273 9.44758004,10.6027273 M44.2604706,0.5 L30.1724038,0.5 L19.889596,0.5 L5.80152909,0.5 C2.9024604,0.5 0.531,2.77272727 0.531,5.55181818 L0.531,19.2627273 L0.531,61.8409091 C0.531,66.6036364 4.49916969,70.5 9.34761215,70.5 L40.7143876,70.5 C45.56283,70.5 49.5309997,66.6036364 49.5309997,61.8409091 L49.5309997,20.7072727 L49.5309997,6.27454545 C49.5319254,3.09818182 47.1595393,0.5 44.2604706,0.5" id="Shape"></path>
                </g>
            </g>
            <g id="noun_7456_cc" transform="translate(1031.000000, 139.000000)" fill="#FFFFFF" sketch:type="MSShapeGroup">
                <path d="M70.0206576,10.1807816 C68.183635,8.32303305 66.2448831,6.82102358 64.2206197,5.64343025 L64.2206197,3.47618123 C64.2206197,2.37316632 63.4347986,1.43124082 62.3592705,1.24777789 C60.3151036,0.898750867 58.2790456,0.722 56.306384,0.722 C45.2953054,0.722 38.3703491,6.07598511 35.5528929,8.80630124 C32.6462395,6.66291731 26.0972389,2.5969016 18.2449252,2.5969016 C11.9937405,2.5969016 6.3035406,5.14822951 1.33060519,10.17929 C0.911156596,10.6036413 0.676,11.1778951 0.676,11.7775057 L0.676,51.4562108 C0.676,52.2377927 1.07775657,52.962695 1.7338361,53.3728763 C2.38917846,53.7860408 3.21112079,53.8278047 3.90405872,53.4802692 C3.96082066,53.4519294 9.67313558,50.6477807 18.0149288,50.6477807 C23.7427242,50.6477807 29.3636303,51.9454452 34.7213674,54.5049768 C34.7243161,54.5064684 34.7287391,54.5072141 34.7316878,54.5087057 C34.868801,54.5735889 35.0110745,54.6205733 35.1562966,54.6556252 C35.1813603,54.6615915 35.206424,54.666812 35.2322249,54.6720325 C35.3781841,54.7018638 35.5263549,54.722 35.6752628,54.722 C35.6877947,54.722 35.6995894,54.7182711 35.7113841,54.7182711 C35.8234336,54.7160337 35.934746,54.7041012 36.0460583,54.6862024 C36.4573981,54.6511505 36.8554688,54.5094515 37.1930918,54.2551391 C42.3820174,51.8693753 47.8083111,50.6485264 53.336334,50.6485264 C61.6766529,50.6485264 67.3889678,53.4526752 67.4427811,53.4787777 C68.135719,53.830042 68.9576614,53.7912613 69.6159524,53.3788426 C70.2757178,52.9656781 70.676,52.2407758 70.676,51.4569566 L70.676,11.7782515 C70.6752628,11.1793867 70.4386319,10.6043871 70.0206576,10.1807816 L70.0206576,10.1807816 Z M38.0961226,12.623225 C39.7893975,10.8311055 45.9027318,5.24219832 56.306384,5.24219832 C57.4349882,5.24219832 58.5886561,5.30857312 59.7548559,5.44057693 L59.7548559,40.5558282 C59.0434888,40.4946739 58.2141748,40.4521642 57.2897661,40.4521642 C52.9906022,40.4521642 45.3424841,41.4254127 38.0961226,47.2477503 L38.0961226,12.623225 L38.0961226,12.623225 Z M5.14471248,48.1538781 L5.14471248,12.7358384 C9.08413833,9.00840877 13.4872429,7.11859149 18.2449252,7.11859149 C25.3173151,7.11859149 31.3783105,11.2696266 33.4416438,12.8603844 L33.4416438,13.0438473 L33.4416438,49.0383783 C28.4517535,47.1053055 23.2775712,46.1268365 18.0149288,46.1268365 C12.456682,46.1268365 7.96069429,47.2231394 5.14471248,48.1538781 L5.14471248,48.1538781 Z M66.2087619,48.1546239 C63.3920429,47.2238852 58.8945808,46.1275823 53.3370712,46.1275823 C51.8067104,46.1275823 50.2851956,46.2200596 48.7725269,46.3856237 C51.9010679,45.3102028 54.8519515,44.9716167 57.2882918,44.9716167 C59.8226754,44.9716167 61.457714,45.3504751 61.4680344,45.3519667 C62.1322228,45.5123103 62.8340067,45.3564414 63.3714022,44.929107 C63.9073233,44.5002811 64.2206197,43.8462283 64.2206197,43.1541405 L64.2206197,10.8877851 C64.892917,11.5015655 65.5593168,12.1235496 66.2087619,12.7365842 L66.2087619,48.1546239 L66.2087619,48.1546239 Z" id="Shape"></path>
            </g>
            <g id="noun_2222_cc" transform="translate(955.000000, 267.000000)" fill="#FFFFFF" sketch:type="MSShapeGroup">
                <g id="Group">
                    <path d="M54.8457931,0.5534375 L15.4034023,0.5534375 C10.7417011,0.5534375 6.96422989,4.2984375 6.96422989,8.9184375 L6.96422989,9.909375 C3.52147126,9.909375 0.730482759,12.6751042 0.730482759,16.0883333 C0.730482759,18.7169792 2.38933333,20.95625 4.72570115,21.8494792 C2.39006897,22.7419792 0.730482759,24.98125 0.730482759,27.6098958 C0.730482759,30.2378125 2.3885977,32.4763542 4.72128736,33.3695833 C2.3885977,34.2628125 0.730482759,36.5013542 0.730482759,39.1292708 C0.730482759,41.8155208 2.46289655,44.0941667 4.87724138,44.9458333 C2.46363218,45.7975 0.730482759,48.0761458 0.730482759,50.7623958 C0.730482759,54.1748958 3.52147126,56.9413542 6.96422989,56.9413542 L6.96422989,61.0451042 C6.96422989,65.6651042 10.7417011,69.4101042 15.4034023,69.4101042 L54.8450575,69.4101042 C59.5052874,69.4101042 63.2842299,65.6651042 63.2842299,61.0451042 L63.2842299,8.9184375 C63.2842299,4.2984375 59.506023,0.5534375 54.8457931,0.5534375 L54.8457931,0.5534375 Z M6.96496552,13.3021875 L6.96496552,18.87375 C5.41645977,18.87375 4.15485057,17.6239583 4.15485057,16.0883333 C4.15411494,14.5519792 5.41572414,13.3021875 6.96496552,13.3021875 L6.96496552,13.3021875 Z M6.96496552,24.8244792 L6.96496552,30.3960417 C5.41645977,30.3960417 4.15485057,29.14625 4.15485057,27.6098958 C4.15485057,26.0735417 5.41572414,24.8244792 6.96496552,24.8244792 L6.96496552,24.8244792 Z M6.96496552,36.3438542 L6.96496552,41.9154167 C5.41645977,41.9154167 4.15485057,40.665625 4.15485057,39.13 C4.15485057,37.594375 5.41572414,36.3438542 6.96496552,36.3438542 L6.96496552,36.3438542 Z M4.15411494,50.7623958 C4.15411494,49.2267708 5.41572414,47.9769792 6.96422989,47.9769792 L6.96422989,53.5485417 C5.41572414,53.5485417 4.15411494,52.29875 4.15411494,50.7623958 L4.15411494,50.7623958 Z M56.9555862,61.0451042 C56.9555862,62.1986458 56.0088276,63.1363542 54.8457931,63.1363542 L15.4034023,63.1363542 C14.2403678,63.1363542 13.2936092,62.1979167 13.2936092,61.0451042 L13.2936092,8.9184375 C13.2936092,7.76489583 14.2403678,6.8271875 15.4034023,6.8271875 L54.8450575,6.8271875 C56.008092,6.8271875 56.9548506,7.765625 56.9548506,8.9184375 L56.9548506,61.0451042 L56.9555862,61.0451042 Z" id="Shape"></path>
                    <rect id="Rectangle-path" x="19.9076782" y="13.8439583" width="30.4338391" height="3.3928125"></rect>
                    <rect id="Rectangle-path" x="19.9076782" y="22.6967708" width="30.4338391" height="3.3928125"></rect>
                    <rect id="Rectangle-path" x="19.9076782" y="31.5503125" width="30.4338391" height="3.3928125"></rect>
                    <rect id="Rectangle-path" x="19.9076782" y="40.403125" width="30.4338391" height="3.3928125"></rect>
                    <rect id="Rectangle-path" x="19.9076782" y="49.2559375" width="30.4338391" height="3.3928125"></rect>
                </g>
            </g>
            <g id="noun_5029_cc" transform="translate(106.000000, 46.000000)" fill="#FFFFFF" sketch:type="MSShapeGroup">
                <path d="M19.7933275,11.587749 L19.7933275,29.5181255 L19.7933275,58.7896655 C17.7621875,57.4540142 14.884989,56.6051336 11.6687672,56.6051336 C5.52434347,56.6051336 0.544,59.6474505 0.544,63.4080509 C0.544,67.1627151 5.52434347,70.208 11.6687672,70.208 C17.813191,70.208 22.7935345,67.1627151 22.7935345,63.4080509 L22.7935345,28.6365957 L55.5437931,19.0199064 L55.5437931,47.4099166 C53.5096528,46.0742653 50.6384548,45.2253847 47.4162326,45.2253847 C41.274809,45.2253847 36.2944655,48.2677015 36.2944655,52.0283019 C36.2944655,55.7829661 41.274809,58.828251 47.4162326,58.828251 C53.5636565,58.828251 58.544,55.7829661 58.544,52.0283019 L58.544,18.1383765 L58.544,0.208 L19.7933275,11.587749 L19.7933275,11.587749 Z" id="music"></path>
            </g>
            <g id="noun_50370" transform="translate(330.000000, 18.000000)" fill="#FFFFFF" sketch:type="MSShapeGroup">
                <g id="Group">
                    <path d="M20.2687308,1.00961538 L10.6467692,12.5434615 L4.36596154,8.52923077 C3.07161538,7.7 1.33084615,8.03923077 0.471692308,9.275 C-0.387461538,10.5107692 -0.0393076923,12.1853846 1.24942308,13.0092308 L9.6725,18.3938462 C10.1498077,18.6980769 10.6916923,18.8461538 11.2307692,18.8461538 C12.0562308,18.8461538 12.8732692,18.4961538 13.4235769,17.8365385 L24.6543462,4.375 C25.623,3.21461538 25.4264615,1.51846154 24.2163462,0.592307692 C23.0062308,-0.339230769 21.2373846,-0.150769231 20.2687308,1.00961538 L20.2687308,1.00961538 Z" id="Shape"></path>
                    <path d="M20.2687308,25.2403846 L10.6467692,36.7742308 L4.36596154,32.76 C3.07442308,31.9307692 1.33084615,32.2673077 0.471692308,33.5057692 C-0.387461538,34.7415385 -0.0393076923,36.4134615 1.24942308,37.24 L9.6725,42.6246154 C10.1498077,42.9288462 10.6916923,43.0769231 11.2307692,43.0769231 C12.0562308,43.0769231 12.8732692,42.7269231 13.4235769,42.0673077 L24.6543462,28.6057692 C25.623,27.4453846 25.4264615,25.7492308 24.2163462,24.8230769 C23.0062308,23.8942308 21.2373846,24.0773077 20.2687308,25.2403846 L20.2687308,25.2403846 Z" id="Shape"></path>
                    <path d="M20.2687308,49.4711538 L10.6467692,61.005 L4.36596154,56.9907692 C3.07442308,56.1642308 1.33084615,56.5007692 0.471692308,57.7365385 C-0.387461538,58.975 -0.0393076923,60.6442308 1.24942308,61.4707692 L9.6725,66.8553846 C10.1498077,67.1596154 10.6916923,67.3076923 11.2307692,67.3076923 C12.0562308,67.3076923 12.8732692,66.9576923 13.4235769,66.2980769 L24.6543462,52.8365385 C25.623,51.6734615 25.4264615,49.98 24.2163462,49.0511538 C23.0062308,48.125 21.2373846,48.3107692 20.2687308,49.4711538 L20.2687308,49.4711538 Z" id="Shape"></path>
                    <rect id="Rectangle-path" x="33.6923077" y="56.5384615" width="39.3076923" height="5.38461538"></rect>
                    <rect id="Rectangle-path" x="33.6923077" y="32.3076923" width="39.3076923" height="5.38461538"></rect>
                    <rect id="Rectangle-path" x="33.6923077" y="8.07692308" width="39.3076923" height="5.38461538"></rect>
                </g>
            </g>
            <g id="noun_36706_cc" transform="translate(526.000000, 97.000000)" fill="#FFFFFF" sketch:type="MSShapeGroup">
                <path d="M69.5116279,23.0729104 L69.5116279,14.0742537 C69.5116279,11.3160448 67.2936047,9.07910448 64.5595349,9.07910448 L49.4851163,9.07910448 L49.4851163,31.994403 C56.209186,30.2573881 62.8746512,27.3021642 69.5116279,23.0729104 L69.5116279,23.0729104 Z" id="Shape"></path>
                <path d="M20.3122093,9.07910448 L5.68465116,9.07910448 C2.94895349,9.07910448 0.731744186,11.3160448 0.731744186,14.0742537 L0.731744186,23.6064925 C7.36546512,27.4113433 13.8836047,30.1416418 20.3122093,31.8187313 L20.3122093,9.07910448 L20.3122093,9.07910448 Z" id="Shape"></path>
                <path d="M40.4876744,34.9857463 L40.4876744,38.8997761 L29.4146512,38.8997761 L29.4146512,34.9077612 C20.0427907,33.9423881 10.5081395,30.698209 0.731744186,25.1842537 L0.731744186,49.2997015 C0.731744186,52.0587313 2.94895349,54.2940299 5.68465116,54.2940299 L64.5603488,54.2940299 C67.2944186,54.2940299 69.5124419,52.0587313 69.5124419,49.2997015 L69.5124419,24.6884328 C59.9240698,30.666194 50.2803488,34.1008209 40.4876744,34.9857463 L40.4876744,34.9857463 Z" id="Shape"></path>
                <rect id="Rectangle-path" x="31.1483721" y="31.1907463" width="7.60639535" height="5.96134328"></rect>
                <path d="M44.7422093,9.07910448 L44.7422093,6.6361194 C44.7422093,3.1169403 41.9031395,0.254477612 38.4153488,0.254477612 L31.2956977,0.254477612 C27.8062791,0.254477612 24.9680233,3.1169403 24.9680233,6.6361194 L24.9680233,9.07910448 L21.7130233,9.07910448 L21.7130233,32.1766418 C24.2932558,32.7890299 26.8604651,33.2364179 29.4154651,33.5089552 L29.4154651,29.4430597 L40.4884884,29.4430597 L40.4884884,33.5877612 C43.0239535,33.3505224 45.5488372,32.9335075 48.0655814,32.3498507 L48.0655814,9.07910448 L44.7422093,9.07910448 L44.7422093,9.07910448 Z M27.719186,6.6361194 C27.719186,4.64626866 29.3226744,3.02746269 31.2956977,3.02746269 L38.4153488,3.02746269 C40.3867442,3.02746269 41.9910465,4.64626866 41.9910465,6.6361194 L41.9910465,9.07910448 L27.719186,9.07910448 L27.719186,6.6361194 L27.719186,6.6361194 Z" id="Shape"></path>
            </g>
            <g id="noun_70486_cc" transform="translate(557.000000, 228.000000)" fill="#FFFFFF" sketch:type="MSShapeGroup">
                <g id="Group">
                    <path d="M2.08402174,39.7228571 C25.2844565,30.7714286 40.7958913,20.1664286 50.1133696,12.3571429 L54.6121304,16.9021429 L59.1281087,0.587142857 L42.6804783,4.84857143 L47.1125217,9.32571429 C38.0303478,16.8935714 23.0024348,27.1014286 0.5445,35.7671429 L2.08402174,39.7228571 L2.08402174,39.7228571 Z" id="Shape"></path>
                    <path d="M52.6443261,21.5228571 L52.6443261,66.1485714 L48.1957826,66.1485714 L48.1957826,30.7742857 L35.223913,30.7742857 L35.223913,66.1485714 L30.776087,66.1485714 L30.776087,40.0257143 L17.8042174,40.0257143 L17.8042174,66.1485714 L13.3563913,66.1485714 L13.3563913,49.2771429 L0.384521739,49.2771429 L0.384521739,66.1485714 L0.384521739,67.7807143 L0.384521739,69.4128571 L65.6161957,69.4128571 L65.6161957,67.7807143 L65.6161957,66.1485714 L65.6161957,21.5228571 L52.6443261,21.5228571 Z" id="Shape"></path>
                </g>
            </g>
            <g id="noun_68413_cc" transform="translate(649.000000, 143.000000)" fill="#FFFFFF" sketch:type="MSShapeGroup">
                <path d="M1.33959184,19.3787755 C0.663673469,19.3787755 0.115102041,18.8302041 0.115102041,18.1542857 C0.115102041,8.44897959 8.01061224,0.551020408 17.7183673,0.551020408 L58.6604082,0.551020408 C59.3338776,0.551020408 59.884898,1.09959184 59.884898,1.7755102 C59.884898,2.45142857 59.3338776,3 58.6604082,3 L17.7159184,3 C9.36,3 2.56163265,9.79836735 2.56163265,18.1542857 C2.56408163,18.8326531 2.0155102,19.3787755 1.33959184,19.3787755 L1.33959184,19.3787755 Z" id="Shape"></path>
                <path d="M48.1665306,59.4489796 C41.7991837,59.4489796 36.6195918,54.3208163 36.6195918,48.0220408 L36.6195918,3.00244898 C36.6195918,2.32653061 37.1706122,1.77795918 37.8440816,1.77795918 C38.517551,1.77795918 39.0685714,2.32653061 39.0685714,3.00244898 L39.0685714,48.0220408 C39.0685714,52.9714286 43.1510204,57 48.1665306,57 C53.1844898,57 57.2644898,52.9420408 57.2644898,47.9534694 C57.2644898,47.277551 57.8155102,46.7289796 58.4889796,46.7289796 C59.164898,46.7289796 59.7134694,47.277551 59.7134694,47.9534694 C59.7134694,54.2938776 54.5338776,59.4489796 48.1665306,59.4489796 L48.1665306,59.4489796 Z" id="Shape"></path>
                <path d="M9.44326531,58.202449 C8.93387755,58.202449 8.45632653,57.8816327 8.28244898,57.3746939 C8.0644898,56.7306122 8.40734694,56.04 9.04897959,55.8171429 C24.0391837,50.7208163 27.4114286,14.1771429 27.4114286,1.77795918 C27.4114286,1.10204082 27.96,0.553469388 28.6359184,0.553469388 C29.3118367,0.553469388 29.8604082,1.10204082 29.8604082,1.77795918 C29.8604082,2.27265306 29.3142857,51.5167347 9.83755102,58.1387755 C9.70530612,58.1828571 9.57306122,58.202449 9.44326531,58.202449 L9.44326531,58.202449 Z" id="Shape"></path>
            </g>
            <g id="noun_50057_cc" transform="translate(1226.000000, 116.000000)" fill="#FFFFFF" sketch:type="MSShapeGroup">
                <path d="M28.0789,53.9254 L28.0761,53.9254 L5.793,54.0969 C5.688,54.0976 5.5886,54.141 5.5165,54.2173 C5.4444,54.2943 5.408,54.3972 5.4143,54.5015 L4.4959,62.8273 C4.5071,63.0296 4.6758,63.1885 4.8781,63.1885 L4.8809,63.1885 L28.9091,63.0275 C29.1156,63.0261 29.2836,62.8609 29.2892,62.6544 L28.4618,54.3195 C28.4646,54.2159 28.4247,54.1144 28.3519,54.0409 C28.2805,53.966 28.1825,53.9254 28.0789,53.9254 L28.0789,53.9254 L28.0789,53.9254 Z" id="Shape"></path>
                <path d="M33.149,32.8855 L19.9708,1.2028 C19.9309,1.1111 19.8588,1.0369 19.7678,0.9977 C19.7286,0.9816 19.2141,0.6897 17.987,0.3747 C17.8827,0.3474 17.7679,0.3943 17.6846,0.4671 C17.6013,0.5399 17.5544,0.6449 17.5544,0.7555 L17.5915,26.3636 C17.5915,26.5554 17.7434,26.6807 17.9254,26.743 C18.645,26.9866 18.8949,27.1812 19.4486,27.6369 C20.248,28.2928 20.7436,29.2203 20.8451,30.25 C20.9473,31.2783 20.6421,32.2849 19.9848,33.0843 C19.2463,33.9838 18.1564,34.499 16.9916,34.499 C16.1005,34.499 15.2283,34.1875 14.5381,33.6205 C12.8882,32.2674 12.6474,29.823 14.0005,28.1731 C14.5696,27.4773 15.075,27.002 15.9549,26.8305 C16.1362,26.7955 16.265,26.6373 16.265,26.4532 L16.2272,0.7555 C16.2272,0.6498 16.1838,0.549 16.1061,0.4769 C16.0284,0.4041 15.9234,0.3635 15.8198,0.374 C15.2885,0.4062 15.082,0.5 14.6263,0.6512 C14.5227,0.6855 14.4387,0.7632 14.3946,0.8633 L0.5507,32.9289 C0.5045,33.0367 0.5094,33.1606 0.5661,33.2642 C0.6354,33.3909 4.0178,37.9339 7.5367,51.663 C7.5885,51.8667 7.7103,52.0424 7.9196,52.0424 L7.9224,52.0424 L25.4182,51.9248 C25.5925,51.9234 25.7444,51.8037 25.7864,51.635 C25.8095,51.5412 28.1895,42.2025 33.1308,33.2166 C33.1868,33.1151 33.1931,32.9919 33.149,32.8855 L33.149,32.8855 L33.149,32.8855 Z" id="Shape"></path>
            </g>
            <g id="noun_42586_cc" transform="translate(1193.000000, 248.000000)" fill="#FFFFFF" sketch:type="MSShapeGroup">
                <path d="M16.5439273,64.395 C12.3089743,64.395 8.07246586,62.7613095 4.84783502,59.4947168 C1.7212031,56.326634 0,52.1174972 0,47.6404131 C0,43.1649052 1.7212031,38.9557684 4.84705725,35.7924141 L31.5408718,8.74392254 C32.3513072,7.92274288 33.662626,7.92274288 34.4738392,8.74392254 C35.2842746,9.56431411 35.2842746,10.8945936 34.4738392,11.7157733 L7.78080244,38.7634768 C5.43971734,41.1363865 4.14939834,44.2887076 4.14939834,47.6404131 C4.14939834,50.9944828 5.43971734,54.1491682 7.78080244,56.522866 C12.6146376,61.4168446 20.4716614,61.4168446 25.3078299,56.522866 L63.6316263,17.6854815 C65.0619438,16.2369899 65.8490461,14.3101336 65.8490461,12.2619129 C65.8490461,10.2136923 65.0619438,8.28762405 63.6316263,6.83834441 C60.6792147,3.84915588 55.8757125,3.84915588 52.9256342,6.83834441 L24.8295019,35.310109 C24.3091743,35.8365466 24.0252886,36.5324215 24.0252886,37.2771573 C24.0252886,38.0218932 24.3083966,38.7224966 24.8295019,39.24657 C25.9012678,40.3325446 27.6419151,40.3309685 28.7160143,39.24657 L45.3361629,22.4076585 C46.1458206,21.5864789 47.4586949,21.5864789 48.2691303,22.4076585 C49.0795658,23.2296263 49.0795658,24.5583296 48.2691303,25.3795093 L31.6482039,42.2184207 C28.9571227,44.9443904 24.5837268,44.9459666 21.8957567,42.2184207 C20.5922156,40.8975982 19.873557,39.1441195 19.873557,37.2771573 C19.873557,35.4094071 20.5914379,33.6582927 21.8957567,32.3374701 L49.9926667,3.86649365 C54.5612827,-0.763478026 61.9967556,-0.760325705 66.5653715,3.86491749 C68.7781247,6.11173438 70,9.0930421 70,12.262701 C70,15.4347242 68.7781247,18.4144557 66.5653715,20.6581203 L28.2407973,59.4955048 C25.0153887,62.7613095 20.7781025,64.395 16.5439273,64.395 L16.5439273,64.395 Z" id="Shape"></path>
            </g>
            <g id="noun_24033_cc" transform="translate(1054.000000, 313.000000)" fill="#FFFFFF" sketch:type="MSShapeGroup">
                <path d="M50.3337391,24.117234 C45.8903768,12.8740426 33.0591884,7.3187234 21.6794783,11.7108511 C10.2997681,16.1029787 4.68075362,28.7789362 9.12562319,40.0221277 C13.5704928,51.2690426 26.3964058,56.823617 37.7761159,52.4307447 C49.1558261,48.038617 54.7786087,35.3619149 50.3337391,24.117234 L50.3337391,24.117234 Z M29.6957681,51.1759574 C28.8961739,51.1737234 28.0988406,51.1402128 27.3128116,51.0419149 C26.5757681,48.351383 26.6006377,44.5751064 24.6924638,43.5861702 C22.4534493,42.4267021 22.2929275,40.5069149 20.4352464,39.1337234 C18.7524058,37.8901064 17.3830725,38.0174468 15.2857391,37.5438298 C14.3550145,37.3360638 12.5937971,36.7090426 11.7670725,36.3031915 C12.076058,36.8535106 13.0128116,37.4626596 12.9585507,37.7434043 C12.9042899,38.0278723 11.6231304,37.1193617 11.0292754,36.6896809 C11.0044058,36.6725532 10.9810435,36.6517021 10.9554203,36.6330851 C9.91994203,32.4911702 10.3329275,28.2546809 11.9569855,24.5230851 C13.2961739,25.2178723 13.8531014,26.4734043 15.3588406,25.8910638 C16.9022609,25.2960638 13.9307246,21.282234 18.3725797,22.7231915 C19.7901449,23.186383 21.8746667,23.5140426 21.5114203,25.2990426 C21.4488696,25.6043617 20.7517681,28.3782979 20.2317681,28.228617 C18.7561739,30.2154255 20.3953043,34.2017021 19.344,34.6068085 C18.291942,35.0141489 14.4861449,33.5687234 15.0453333,36.472234 C15.3332174,37.9690426 17.0017391,35.8280851 18.1487536,36.3255319 C19.2965217,36.822234 19.6318841,37.9735106 20.818087,38.3957447 C21.5784928,38.6668085 22.4255652,36.9465957 23.5032464,36.782766 C25.1695072,36.5332979 31.6521739,36.8885106 32.3605797,38.6809574 C32.864,39.9543617 30.3016812,47.1651064 29.6957681,51.1759574 L29.6957681,51.1759574 Z M45.7215652,42.8251064 C45.4118261,42.4244681 45.1578551,41.9620213 44.9928116,41.493617 C44.2384348,39.34 43.9075942,36.1959574 40.963942,36.1155319 C38.7369855,35.9018085 37.3510725,37.8171277 35.2401739,36.2361702 C33.3093913,34.792234 33.4088696,30.2198936 36.4354203,28.5689362 C37.1204638,28.1988298 38.4588986,28.7603191 39.7038841,28.7498936 C40.9074203,28.7439362 41.3008116,28.2546809 42.3408116,27.983617 C43.7809855,27.6015957 45.0252174,27.4146809 44.8247536,25.7681915 C44.7433623,24.9423404 42.1177391,26.6424468 42.1395942,25.1545745 C42.1569275,23.9303191 45.4208696,24.1939362 45.2106087,23.2087234 C44.0334493,21.9487234 42.107942,23.1 41.6015072,24.1388298 C41.0943188,25.1746809 42.0069565,26.0921277 41.6075362,26.247766 C41.2382609,26.39 40.9006377,25.2104255 40.2306667,24.8261702 C39.4521739,24.3823404 38.3601739,24.7144681 38.2870725,24.8068085 C38.149913,24.9773404 39.2562319,26.5031915 38.7897391,26.6834043 C38.4973333,26.7965957 37.7090435,25.1560638 37.2455652,25.3079787 C35.7903188,25.7875532 35.4014493,29.6665957 34.326029,28.91 C31.8481159,27.1711702 35.4873623,26.966383 35.0208696,26.1494681 C34.561913,25.3385106 33.3568696,24.6846809 34.2416232,23.7210638 C35.1022609,22.7842553 35.6991304,21.7632979 36.9109565,21.2353191 C38.0406377,20.7371277 39.0738551,19.7794681 38.7158841,18.4375532 C38.4777391,18.0153191 38.1521739,17.675 37.7354203,17.4173404 C36.9787826,16.7605319 36.8205217,16.1625532 36.9117101,15.3359574 C34.7028406,16.4068085 37.4173913,20.3945745 36.7685217,20.6455319 C36.4052754,20.7855319 36.0751884,19.8941489 35.4542029,19.6111702 C34.9711304,19.3914894 34.515942,19.5426596 34.3305507,19.0198936 C33.8278841,17.5953191 34.3531594,15.1676596 34.6131594,13.7609574 C34.6244638,13.701383 34.6402899,13.6559574 34.6515942,13.5993617 C40.4213333,15.1058511 45.414087,19.2008511 47.7525797,25.1143617 C50.161913,31.2125532 49.1822029,37.7888298 45.7215652,42.8251064 L45.7215652,42.8251064 Z" id="Shape"></path>
                <path d="M50.4354783,53.447234 L47.8188986,50.7015957 C45.3990145,52.952766 42.5797101,54.7102128 39.4393623,55.9210638 C36.4022609,57.0946809 33.2227246,57.6881915 29.9896812,57.6881915 C19.206087,57.6881915 9.70214493,51.272766 5.77727536,41.3439362 C0.562956522,28.1541489 7.17976812,13.2314894 20.5271884,8.07904255 C22.1452174,7.45425532 23.8077101,7.00819149 25.492058,6.71553191 C26.2238261,7.67170213 27.3715942,8.29797872 28.6776232,8.29797872 C30.8895072,8.29797872 32.6808696,6.52712766 32.6808696,4.34297872 C32.6808696,2.15882979 30.8887536,0.387978723 28.6776232,0.387978723 C26.9518261,0.387978723 25.4935652,1.4737234 24.9328696,2.98617021 C22.9636522,3.32053191 21.0245797,3.83659574 19.1390145,4.5656383 C3.82991304,10.4754255 -3.75907246,27.5889362 2.22168116,42.7171277 C6.30857971,53.0562766 15.6738551,60.0734043 26.6194783,61.2768085 L26.3851014,64.8319149 L12.9216232,64.8319149 L10.4022609,69.6276596 L48.2198261,69.6276596 L45.7012174,64.8326596 L33.4503188,64.8326596 L33.215942,61.2805319 C35.8114203,61.0005319 38.3616812,60.3876596 40.8282899,59.4352128 C44.426087,58.0478723 47.6583768,56.0335106 50.4354783,53.447234 L50.4354783,53.447234 Z" id="Shape"></path>
            </g>
            <g id="noun_9280_cc" transform="translate(836.000000, 73.000000)" fill="#FFFFFF" sketch:type="MSShapeGroup">
                <g id="Group">
                    <g id="Captions">
                        <path d="M12.4107143,60.274766 L21.8921429,60.274766 L21.8921429,13.6658298 L12.4107143,13.6658298 L12.4107143,60.274766 L12.4107143,60.274766 Z" id="Shape"></path>
                        <path d="M21.8935714,7.53570213 C21.8935714,7.13782979 21.5721429,6.81229787 21.1792857,6.81229787 L13.125,6.81229787 C12.7321429,6.81229787 12.4107143,7.13782979 12.4107143,7.53570213 L12.4107143,12.957617 L21.8935714,12.957617 L21.8935714,7.53570213 L21.8935714,7.53570213 Z" id="Shape"></path>
                        <path d="M12.4107143,66.398383 C12.4107143,66.7955319 12.7321429,67.1217872 13.125,67.1217872 L21.1792857,67.1217872 C21.5721429,67.1217872 21.8935714,66.7955319 21.8935714,66.398383 L21.8935714,60.9764681 L12.4107143,60.9764681 L12.4107143,66.398383 L12.4107143,66.398383 Z" id="Shape"></path>
                        <path d="M55.9492857,56.4407234 L67.3757143,54.2777447 L60.6357143,17.7501702 L49.2085714,19.9131489 L55.9492857,56.4407234 L55.9492857,56.4407234 Z" id="Shape"></path>
                        <path d="M58.5964286,6.69221277 C58.5235714,6.30085106 58.1485714,6.04114894 57.7621429,6.11421277 L47.7392857,8.01170213 C47.3521429,8.08476596 47.0957143,8.46455319 47.1671429,8.85519149 L49.08,19.2165106 L60.5078571,17.0535319 L58.5964286,6.69221277 L58.5964286,6.69221277 Z" id="Shape"></path>
                        <path d="M57.845,66.7159574 C57.9171429,67.1073191 58.2914286,67.3670213 58.6778571,67.2954043 L68.7028571,65.3957447 C69.0885714,65.3226809 69.3457143,64.9421702 69.2742857,64.5522553 L67.505,54.9657021 L56.0757143,57.1301277 L57.845,66.7159574 L57.845,66.7159574 Z" id="Shape"></path>
                        <path d="M34.0478571,10.2397872 L24.2857143,10.2397872 C23.8928571,10.2397872 23.5714286,10.5653191 23.5714286,10.9631915 L23.5714286,12.2197447 L23.5714286,31.4680851 L23.5714286,48.106383 L23.5714286,58.2340426 L23.5714286,58.8279574 L23.5714286,60.274766 L23.5714286,66.398383 C23.5714286,66.7955319 23.8928571,67.1217872 24.2857143,67.1217872 L34.0478571,67.1217872 C34.4407143,67.1217872 34.7621429,66.7955319 34.7621429,66.398383 L34.7621429,58.8279574 L34.7621429,58.2340426 L34.7621429,31.4680851 L34.7621429,12.2197447 L34.7621429,10.9631915 C34.7621429,10.5653191 34.4407143,10.2397872 34.0478571,10.2397872 L34.0478571,10.2397872 Z M33.2442857,48.106383 L25.0892857,48.106383 L25.0892857,31.4680851 L33.2442857,31.4680851 L33.2442857,48.106383 L33.2442857,48.106383 Z" id="Shape"></path>
                        <path d="M0.447142857,55.9951064 L10.3564286,55.9951064 L10.3564286,10.5942553 L0.447142857,10.5942553 L0.447142857,55.9951064 L0.447142857,55.9951064 Z" id="Shape"></path>
                        <path d="M10.3571429,1.13357447 C10.3571429,0.735702128 10.0357143,0.410170213 9.64285714,0.410170213 L1.16071429,0.410170213 C0.767857143,0.410170213 0.446428571,0.735702128 0.446428571,1.13357447 L0.446428571,9.88531915 L10.3571429,9.88531915 L10.3571429,1.13357447 L10.3571429,1.13357447 Z" id="Shape"></path>
                        <path d="M0.446428571,66.398383 C0.446428571,66.7955319 0.767857143,67.1217872 1.16071429,67.1217872 L9.64285714,67.1217872 C10.0357143,67.1217872 10.3571429,66.7955319 10.3571429,66.398383 L10.3571429,56.6968085 L0.446428571,56.6968085 L0.446428571,66.398383 L0.446428571,66.398383 Z" id="Shape"></path>
                        <path d="M38.2771429,56.1122979 L48.1728571,55.5943404 L45.8592857,10.2535319 L35.9635714,10.7714894 L38.2771429,56.1122979 L38.2771429,56.1122979 Z" id="Shape"></path>
                        <path d="M45.3778571,0.806595745 C45.3578571,0.409446809 45.02,0.100553191 44.6278571,0.120808511 L36.1571429,0.564978723 C35.765,0.585234043 35.46,0.927404255 35.4807143,1.32455319 L35.9264286,10.0647234 L45.8235714,9.54676596 L45.3778571,0.806595745 L45.3778571,0.806595745 Z" id="Shape"></path>
                        <path d="M38.8064286,66.5025532 C38.8264286,66.8989787 39.165,67.2078723 39.5571429,67.187617 L48.0278571,66.7441702 C48.42,66.7231915 48.7242857,66.3810213 48.7035714,65.9845957 L48.2092857,56.2953191 L38.3121429,56.8132766 L38.8064286,66.5025532 L38.8064286,66.5025532 Z" id="Shape"></path>
                    </g>
                </g>
            </g>
            <g id="noun_2551" transform="translate(106.000000, 357.000000)" fill="#FFFFFF" sketch:type="MSShapeGroup">
                <path d="M47.7054542,45.8903 C47.7251468,43.84 47.7174104,39.3404 47.3587228,34.8933 C47.3903717,36.7672 47.4396033,38.4822 47.5036045,39.3796 C47.5394732,39.8941 47.6182438,42.5891 47.7054542,45.8903 L47.7054542,45.8903 Z" id="Shape"></path>
                <path d="M30.4771952,7.3259 C30.5383831,5.8853 30.4603158,4.3425 31.6868868,4.4307 C32.2755565,4.4734 33.2897282,4.6225 34.5444316,4.8724 C35.9355769,5.1496 35.7393537,12.6571 35.7393537,12.6571 L40.782783,14.6087 C40.9487639,9.176 39.5843443,2.8676 38.222738,2.4812 C35.9412034,1.8337 32.5927489,0.4834 29.2653937,1.2079 C27.0422337,1.6916 26.4472342,9.8151 26.4472342,9.8151 L30.33794,10.8294 C30.33794,10.8294 30.3787319,9.631 30.4771952,7.3259 L30.4771952,7.3259 Z" id="Shape"></path>
                <path d="M7.01128811,34.7869 C7.83064318,35.0886 9.18099659,35.5317 10.7796181,36.0308 C11.9745402,32.7373 14.0007736,30.225 14.0007736,30.225 C14.0007736,30.225 14.4684742,29.0049 16.8182298,29.4963 C19.1679854,29.987 19.2777016,31.0545 19.2777016,31.0545 C19.2777016,31.0545 17.7557408,33.5101 16.2759785,36.8197 C16.1845483,37.0241 16.0642824,37.2782 15.9728523,37.5911 C19.6982804,38.6719 23.2978162,39.6288 24.3330872,39.7226 C26.3705735,39.9081 31.4885536,40.1307 32.4612301,35.2286 C33.4205437,30.3909 34.3700109,27.4397 35.1788163,25.5973 C35.3405774,25.1948 35.4861624,24.8616 35.5930654,24.6208 C35.8132011,24.1252 36.4834547,23.1312 37.458241,22.1568 L37.458241,22.1554 C37.4610543,22.1484 37.4652741,22.1449 37.4709006,22.1435 C38.773429,20.8485 40.6160987,19.5941 42.6732778,19.6018 C42.7815874,19.6018 42.9138095,19.6151 43.0608011,19.6375 C41.8504062,18.2977 40.4712171,17.1567 39.0027077,16.5932 C38.6686359,16.4651 26.5414777,11.6946 22.9180293,12.2049 C22.8139396,12.2196 22.7168829,12.2336 22.6233428,12.2469 C22.7991701,12.2217 22.9180293,12.2049 22.9180293,12.2049 C22.9180293,12.2049 14.6112459,12.41 9.11840208,17.8728 C6.24890108,20.726 3.72964799,25.8444 2.1479059,30.7626 C2.12750993,32.0107 3.72753807,33.5787 7.01128811,34.7869 L7.01128811,34.7869 Z" id="Shape"></path>
                <path d="M23.2218588,43.3871 C21.5887752,43.0889 18.5554032,42.2615 15.3222914,41.3102 C14.829975,43.2485 15.2484439,46.5777 15.2484439,46.5777 C15.2484439,46.5777 14.6126525,48.0883 12.1067623,47.536 C9.97151598,47.0642 10.0263741,45.5305 10.0263741,45.5305 C10.0263741,45.5305 9.48060625,42.4183 9.96166966,39.6792 C6.88398917,38.7146 4.26908605,37.8487 3.30695924,37.4812 C2.14931252,37.0402 1.31448465,36.4256 0.713155396,35.7389 C0.668846925,36.0112 0.629461617,37.1109 0.592186236,37.3727 C-1.5894785,52.8371 2.93842529,59.4969 3.25913423,60.9032 C3.69026269,62.7939 11.9668038,66.758 19.9563948,69.6623 C24.5912016,71.3472 29.7654464,71.0203 31.8205155,70.8733 L31.9710237,70.8649 C32.2980624,64.8855 33.1884517,49.321 33.6252066,39.7961 C32.9331505,43.2933 27.131554,44.0997 23.2218588,43.3871 L23.2218588,43.3871 Z" id="Shape"></path>
                <path d="M47.7054542,45.8903 C47.6182438,42.5891 47.5401765,39.8955 47.5036045,39.3782 C47.4396033,38.4822 47.3903717,36.7672 47.3587228,34.8926 C47.0387172,30.9334 46.0132925,26.6837 45.1362661,24.4752 C43.6621303,20.7568 39.381088,25.4209 38.1720997,28.3574 C36.9202096,31.3982 35.7351338,66.4507 35.6197911,69.9255 C38.6088547,69.1506 42.8906003,68.0383 43.4152688,67.2186 C44.5272005,65.4854 45.1299364,63.8075 45.4077434,62.3788 C45.5920104,61.4275 48.0641418,60.5378 48.0641418,60.5378 C48.0641418,60.5378 47.8890178,52.9778 47.7307733,46.8766 L47.6871681,47.0376 C47.6871681,47.039 47.6991244,46.6183 47.7054542,45.8903 L47.7054542,45.8903 Z" id="Shape"></path>
                <path d="M58.666526,30.6478 C58.666526,30.6478 58.0328445,23.1354 57.8893695,21.6752 C57.5419348,18.1493 54.3460984,6.8093 43.4532475,15.4977 L46.3389246,18.6309 C46.3389246,18.6309 53.7208566,12.0285 53.999367,27.7603 C54.0225762,29.0917 54.1111932,30.9516 54.9157787,42.1446 C55.806168,54.5199 50.9434891,54.5885 50.9434891,54.5885 L51.1629215,59.8511 C51.1629215,59.8511 52.9690192,59.3807 54.8341949,58.5995 C57.4737138,57.4928 60.0028132,52.8609 60.0028132,46.0716 C60,43.385 58.666526,30.6478 58.666526,30.6478 L58.666526,30.6478 Z" id="Shape"></path>
                <path d="M20.5197454,9.6436 L22.9278757,9.2754 L22.9278757,7.2468 L23.3913563,5.5878 C23.3913563,5.5878 21.1674931,6.6021 20.5197454,7.6157 C19.8712944,8.63 19.592784,9.183 19.592784,9.6436 C19.592784,10.1049 20.5197454,9.6436 20.5197454,9.6436 L20.5197454,9.6436 Z" id="Shape"></path>
            </g>
            <g id="noun_3016_cc" transform="translate(378.000000, 264.000000)" fill="#FFFFFF" sketch:type="MSShapeGroup">
                <path d="M23.8672,60.9917 C24.3803,63.7385 25.1076,66.3677 26.0547,68.8422 C28.9114,69.5947 31.9081,70 35.0007,70 C39.0621,70 42.9583,69.3007 46.5843,68.0288 C41.4806,66.8745 37.7153,65.4444 34.3329,64.1557 C30.8511,62.8292 27.7396,61.6462 23.8672,60.9917 L23.8672,60.9917 Z" id="Shape"></path>
                <path d="M11.2931,60.7397 C14.9415,64.1025 19.3053,66.6939 24.1318,68.2689 C23.2925,65.8693 22.6471,63.3507 22.1781,60.7474 C19.1842,60.3862 15.7031,60.3323 11.2931,60.7397 L11.2931,60.7397 Z" id="Shape"></path>
                <path d="M21.9079,59.1213 C21.6629,57.5015 21.4837,55.8523 21.3619,54.1849 C12.4824,52.4419 5.4439,49.2303 1.4875,45.1031 C3.1115,50.4966 6.0032,55.3364 9.814,59.2886 C14.7252,58.7573 18.6109,58.7601 21.9079,59.1213 L21.9079,59.1213 Z" id="Shape"></path>
                <path d="M18.4702,44.0272 C19.2731,44.4465 20.1985,44.8147 21.2471,45.0702 C22.0808,25.7565 29.2677,6.2244 35.098,0.0028 C35.0651,0.0021 35.0343,0 35.0007,0 C24.5385,0 15.1522,4.5976 8.7381,11.8769 C5.4761,20.9664 8.428,38.794 18.4702,44.0272 L18.4702,44.0272 Z" id="Shape"></path>
                <path d="M21.2604,52.5189 C21.1652,50.5911 21.1449,48.6458 21.1925,46.6928 C19.8709,46.4072 18.7173,45.9578 17.7324,45.4447 C8.057,40.4033 4.5129,25.2161 6.293,14.9891 C2.331,20.6612 0,27.5569 0,35 C0,37.0874 0.1932,39.1286 0.5439,41.1166 C3.1647,46.2364 10.927,50.4 21.2604,52.5189 L21.2604,52.5189 Z" id="Shape"></path>
                <path d="M22.8991,45.3586 C30.4374,46.1643 43.1445,40.8933 61.5328,12.1905 C55.594,5.2878 47.0148,0.7308 37.3583,0.0882 C31.7184,4.0509 23.7566,24.9746 22.8991,45.3586 L22.8991,45.3586 Z" id="Shape"></path>
                <path d="M31.9354,55.4939 C28.8239,55.3147 25.8433,54.9752 23.0286,54.4915 C23.1539,56.1337 23.338,57.7507 23.5858,59.3397 C27.9174,60.0019 31.2767,61.2801 34.8999,62.6605 C38.7268,64.1179 43.0514,65.7601 49.2688,66.9564 C58.1252,62.9958 65.0321,55.4638 68.1604,46.1888 C60.074,54.0491 44.2463,56.2058 31.9354,55.4939 L31.9354,55.4939 Z" id="Shape"></path>
                <path d="M22.848,46.9476 C22.8018,48.9258 22.8242,50.8949 22.925,52.8374 C25.7992,53.3519 28.8484,53.7152 32.0271,53.8993 C45.2459,54.663 62.5996,52.1052 69.174,42.5467 C69.7088,40.1163 70,37.5928 70,35 C70,26.8863 67.2301,19.4243 62.5968,13.4876 C44.086,42.224 30.8875,47.7148 22.848,46.9476 L22.848,46.9476 Z" id="Shape"></path>
            </g>
            <g id="noun_84329_cc" transform="translate(840.000000, 330.000000)" fill="#FFFFFF" sketch:type="MSShapeGroup">
                <path d="M70.3834797,1.72347228 C70.3803253,1.6319886 70.3661304,1.53971627 70.3290658,1.45059854 C70.3290658,1.44980989 70.3282772,1.44902124 70.3282772,1.44823258 C70.3251228,1.44113471 70.3196025,1.43561415 70.3156595,1.42851627 C70.2801721,1.35043968 70.232067,1.28182692 70.1760758,1.22031204 C70.1571492,1.20059573 70.1350682,1.18324537 70.1137758,1.16510637 C70.0640935,1.12173048 70.0104682,1.08545247 69.9513226,1.05548368 C69.9260871,1.04207659 69.9024289,1.02945815 69.8748276,1.01920567 C69.7880807,0.986082268 69.6966022,0.964 69.5996034,0.964 L23.9620702,0.964 C23.8571853,0.964 23.7538777,0.985293615 23.6584561,1.02472624 C23.5622459,1.06494751 23.4762876,1.12330779 23.4037357,1.19586381 L0.62085075,23.9800322 C0.620062142,23.9808208 0.619273534,23.9823981 0.618484926,23.9839754 C0.553030463,24.0494336 0.505713983,24.1259329 0.467860799,24.2071641 C0.45603168,24.2308236 0.450511424,24.2560605 0.441048128,24.2812974 C0.417389888,24.3491215 0.403194944,24.4185229 0.399251904,24.4902903 C0.398463296,24.506852 0.389,24.5218364 0.389,24.5391867 L0.389,70.1753476 C0.389,70.6114724 0.742296381,70.964 1.17760799,70.964 L46.813564,70.964 C47.1163895,70.964 47.3711099,70.7873419 47.503596,70.537339 L69.9497453,48.088348 C70.1776531,47.9732047 70.3337974,47.7531707 70.3684962,47.4897608 C70.370862,47.4802969 70.3724392,47.4708331 70.3740164,47.4613693 C70.3763823,47.4369211 70.389,47.4148388 70.389,47.3896019 L70.389,1.75265242 C70.389,1.74239994 70.3834797,1.73293611 70.3834797,1.72347228 L70.3834797,1.72347228 Z M23.1734622,3.65645936 L23.1734622,23.7497457 L3.0820963,23.7497457 L23.1734622,3.65645936 L23.1734622,3.65645936 Z M1.9670046,25.3270505 L23.1742508,25.3420349 L23.1742508,46.994487 L1.9670046,68.2068711 L1.9670046,25.3270505 L1.9670046,25.3270505 Z M46.0257446,69.3551491 L3.08051908,69.323603 L24.2207336,48.1774657 L46.024956,48.1774657 L46.024956,69.3551491 L46.0257446,69.3551491 Z M46.0257446,46.5323367 L24.7506782,46.5323367 L24.7506782,25.3436122 L46.0257446,25.3585966 L46.0257446,46.5323367 L46.0257446,46.5323367 Z M46.4870803,23.748957 L24.7506782,23.748957 L24.7506782,2.54130484 L67.6966923,2.54130484 L46.4870803,23.748957 L46.4870803,23.748957 Z M47.6029606,68.2068711 L47.6029606,48.1774657 L67.6296606,48.1774657 L47.6029606,68.2068711 L47.6029606,68.2068711 Z M68.811784,46.5323367 L47.6029606,46.5323367 L47.6029606,24.8649002 L68.811784,3.65645936 L68.811784,46.5323367 L68.811784,46.5323367 Z" id="Shape"></path>
            </g>
        </g>
    </g>
</svg>